<?xml version="1.0" encoding="utf-8" standalone="no"?>
<!DOCTYPE svg PUBLIC "-//W3C//DTD SVG 1.1//EN"
  "http://www.w3.org/Graphics/SVG/1.1/DTD/svg11.dtd">
<!-- Created with matplotlib (https://matplotlib.org/) -->
<svg height="266.661094pt" version="1.1" viewBox="0 0 397.559934 266.661094" width="397.559934pt" xmlns="http://www.w3.org/2000/svg" xmlns:xlink="http://www.w3.org/1999/xlink">
 <defs>
  <style type="text/css">
*{stroke-linecap:butt;stroke-linejoin:round;}
  </style>
 </defs>
 <g id="figure_1">
  <g id="patch_1">
   <path d="M 0 266.661094 
L 397.559934 266.661094 
L 397.559934 0 
L 0 0 
z
" style="fill:none;"/>
  </g>
  <g id="axes_1">
   <g id="patch_2">
    <path d="M 48.944375 224.64 
L 383.744375 224.64 
L 383.744375 7.2 
L 48.944375 7.2 
z
" style="fill:none;"/>
   </g>
   <g id="patch_3">
    <path clip-path="url(#p831d2fa11e)" d="M 64.162557 78909.782711 
L 67.206193 78909.782711 
L 67.206193 17.083636 
L 64.162557 17.083636 
z
" style="fill:#1f77b4;"/>
   </g>
   <g id="patch_4">
    <path clip-path="url(#p831d2fa11e)" d="M 67.206193 78909.782711 
L 70.24983 78909.782711 
L 70.24983 124.561788 
L 67.206193 124.561788 
z
" style="fill:#1f77b4;"/>
   </g>
   <g id="patch_5">
    <path clip-path="url(#p831d2fa11e)" d="M 70.24983 78909.782711 
L 73.293466 78909.782711 
L 73.293466 148.251351 
L 70.24983 148.251351 
z
" style="fill:#1f77b4;"/>
   </g>
   <g id="patch_6">
    <path clip-path="url(#p831d2fa11e)" d="M 73.293466 78909.782711 
L 76.337102 78909.782711 
L 76.337102 159.750901 
L 73.293466 159.750901 
z
" style="fill:#1f77b4;"/>
   </g>
   <g id="patch_7">
    <path clip-path="url(#p831d2fa11e)" d="M 76.337102 78909.782711 
L 79.380739 78909.782711 
L 79.380739 153.51973 
L 76.337102 153.51973 
z
" style="fill:#1f77b4;"/>
   </g>
   <g id="patch_8">
    <path clip-path="url(#p831d2fa11e)" d="M 79.380739 78909.782711 
L 82.424375 78909.782711 
L 82.424375 191.0668 
L 79.380739 191.0668 
z
" style="fill:#1f77b4;"/>
   </g>
   <g id="patch_9">
    <path clip-path="url(#p831d2fa11e)" d="M 82.424375 78909.782711 
L 85.468011 78909.782711 
L 85.468011 214.756364 
L 82.424375 214.756364 
z
" style="fill:#1f77b4;"/>
   </g>
   <g id="patch_10">
    <path clip-path="url(#p831d2fa11e)" d="M 85.468011 78909.782711 
L 88.511648 78909.782711 
L 88.511648 191.0668 
L 85.468011 191.0668 
z
" style="fill:#1f77b4;"/>
   </g>
   <g id="patch_11">
    <path clip-path="url(#p831d2fa11e)" d="M 88.511648 78909.782711 
L 91.555284 78909.782711 
L 91.555284 78909.782711 
L 88.511648 78909.782711 
z
" style="fill:#1f77b4;"/>
   </g>
   <g id="patch_12">
    <path clip-path="url(#p831d2fa11e)" d="M 91.555284 78909.782711 
L 94.59892 78909.782711 
L 94.59892 78909.782711 
L 91.555284 78909.782711 
z
" style="fill:#1f77b4;"/>
   </g>
   <g id="patch_13">
    <path clip-path="url(#p831d2fa11e)" d="M 94.59892 78909.782711 
L 97.642557 78909.782711 
L 97.642557 177.209294 
L 94.59892 177.209294 
z
" style="fill:#1f77b4;"/>
   </g>
   <g id="patch_14">
    <path clip-path="url(#p831d2fa11e)" d="M 97.642557 78909.782711 
L 100.686193 78909.782711 
L 100.686193 214.756364 
L 97.642557 214.756364 
z
" style="fill:#1f77b4;"/>
   </g>
   <g id="patch_15">
    <path clip-path="url(#p831d2fa11e)" d="M 100.686193 78909.782711 
L 103.72983 78909.782711 
L 103.72983 191.0668 
L 100.686193 191.0668 
z
" style="fill:#1f77b4;"/>
   </g>
   <g id="patch_16">
    <path clip-path="url(#p831d2fa11e)" d="M 103.72983 78909.782711 
L 106.773466 78909.782711 
L 106.773466 78909.782711 
L 103.72983 78909.782711 
z
" style="fill:#1f77b4;"/>
   </g>
   <g id="patch_17">
    <path clip-path="url(#p831d2fa11e)" d="M 106.773466 78909.782711 
L 109.817102 78909.782711 
L 109.817102 78909.782711 
L 106.773466 78909.782711 
z
" style="fill:#1f77b4;"/>
   </g>
   <g id="patch_18">
    <path clip-path="url(#p831d2fa11e)" d="M 109.817102 78909.782711 
L 112.860739 78909.782711 
L 112.860739 214.756364 
L 109.817102 214.756364 
z
" style="fill:#1f77b4;"/>
   </g>
   <g id="patch_19">
    <path clip-path="url(#p831d2fa11e)" d="M 112.860739 78909.782711 
L 115.904375 78909.782711 
L 115.904375 214.756364 
L 112.860739 214.756364 
z
" style="fill:#1f77b4;"/>
   </g>
   <g id="patch_20">
    <path clip-path="url(#p831d2fa11e)" d="M 115.904375 78909.782711 
L 118.948011 78909.782711 
L 118.948011 78909.782711 
L 115.904375 78909.782711 
z
" style="fill:#1f77b4;"/>
   </g>
   <g id="patch_21">
    <path clip-path="url(#p831d2fa11e)" d="M 118.948011 78909.782711 
L 121.991648 78909.782711 
L 121.991648 78909.782711 
L 118.948011 78909.782711 
z
" style="fill:#1f77b4;"/>
   </g>
   <g id="patch_22">
    <path clip-path="url(#p831d2fa11e)" d="M 121.991648 78909.782711 
L 125.035284 78909.782711 
L 125.035284 214.756364 
L 121.991648 214.756364 
z
" style="fill:#1f77b4;"/>
   </g>
   <g id="patch_23">
    <path clip-path="url(#p831d2fa11e)" d="M 125.035284 78909.782711 
L 128.07892 78909.782711 
L 128.07892 78909.782711 
L 125.035284 78909.782711 
z
" style="fill:#1f77b4;"/>
   </g>
   <g id="patch_24">
    <path clip-path="url(#p831d2fa11e)" d="M 128.07892 78909.782711 
L 131.122557 78909.782711 
L 131.122557 78909.782711 
L 128.07892 78909.782711 
z
" style="fill:#1f77b4;"/>
   </g>
   <g id="patch_25">
    <path clip-path="url(#p831d2fa11e)" d="M 131.122557 78909.782711 
L 134.166193 78909.782711 
L 134.166193 78909.782711 
L 131.122557 78909.782711 
z
" style="fill:#1f77b4;"/>
   </g>
   <g id="patch_26">
    <path clip-path="url(#p831d2fa11e)" d="M 134.166193 78909.782711 
L 137.20983 78909.782711 
L 137.20983 214.756364 
L 134.166193 214.756364 
z
" style="fill:#1f77b4;"/>
   </g>
   <g id="patch_27">
    <path clip-path="url(#p831d2fa11e)" d="M 137.20983 78909.782711 
L 140.253466 78909.782711 
L 140.253466 191.0668 
L 137.20983 191.0668 
z
" style="fill:#1f77b4;"/>
   </g>
   <g id="patch_28">
    <path clip-path="url(#p831d2fa11e)" d="M 140.253466 78909.782711 
L 143.297102 78909.782711 
L 143.297102 78909.782711 
L 140.253466 78909.782711 
z
" style="fill:#1f77b4;"/>
   </g>
   <g id="patch_29">
    <path clip-path="url(#p831d2fa11e)" d="M 143.297102 78909.782711 
L 146.340739 78909.782711 
L 146.340739 177.209294 
L 143.297102 177.209294 
z
" style="fill:#1f77b4;"/>
   </g>
   <g id="patch_30">
    <path clip-path="url(#p831d2fa11e)" d="M 146.340739 78909.782711 
L 149.384375 78909.782711 
L 149.384375 78909.782711 
L 146.340739 78909.782711 
z
" style="fill:#1f77b4;"/>
   </g>
   <g id="patch_31">
    <path clip-path="url(#p831d2fa11e)" d="M 149.384375 78909.782711 
L 152.428011 78909.782711 
L 152.428011 78909.782711 
L 149.384375 78909.782711 
z
" style="fill:#1f77b4;"/>
   </g>
   <g id="patch_32">
    <path clip-path="url(#p831d2fa11e)" d="M 152.428011 78909.782711 
L 155.471648 78909.782711 
L 155.471648 78909.782711 
L 152.428011 78909.782711 
z
" style="fill:#1f77b4;"/>
   </g>
   <g id="patch_33">
    <path clip-path="url(#p831d2fa11e)" d="M 155.471648 78909.782711 
L 158.515284 78909.782711 
L 158.515284 214.756364 
L 155.471648 214.756364 
z
" style="fill:#1f77b4;"/>
   </g>
   <g id="patch_34">
    <path clip-path="url(#p831d2fa11e)" d="M 158.515284 78909.782711 
L 161.55892 78909.782711 
L 161.55892 78909.782711 
L 158.515284 78909.782711 
z
" style="fill:#1f77b4;"/>
   </g>
   <g id="patch_35">
    <path clip-path="url(#p831d2fa11e)" d="M 161.55892 78909.782711 
L 164.602557 78909.782711 
L 164.602557 78909.782711 
L 161.55892 78909.782711 
z
" style="fill:#1f77b4;"/>
   </g>
   <g id="patch_36">
    <path clip-path="url(#p831d2fa11e)" d="M 164.602557 78909.782711 
L 167.646193 78909.782711 
L 167.646193 78909.782711 
L 164.602557 78909.782711 
z
" style="fill:#1f77b4;"/>
   </g>
   <g id="patch_37">
    <path clip-path="url(#p831d2fa11e)" d="M 167.646193 78909.782711 
L 170.68983 78909.782711 
L 170.68983 78909.782711 
L 167.646193 78909.782711 
z
" style="fill:#1f77b4;"/>
   </g>
   <g id="patch_38">
    <path clip-path="url(#p831d2fa11e)" d="M 170.68983 78909.782711 
L 173.733466 78909.782711 
L 173.733466 78909.782711 
L 170.68983 78909.782711 
z
" style="fill:#1f77b4;"/>
   </g>
   <g id="patch_39">
    <path clip-path="url(#p831d2fa11e)" d="M 173.733466 78909.782711 
L 176.777102 78909.782711 
L 176.777102 78909.782711 
L 173.733466 78909.782711 
z
" style="fill:#1f77b4;"/>
   </g>
   <g id="patch_40">
    <path clip-path="url(#p831d2fa11e)" d="M 176.777102 78909.782711 
L 179.820739 78909.782711 
L 179.820739 78909.782711 
L 176.777102 78909.782711 
z
" style="fill:#1f77b4;"/>
   </g>
   <g id="patch_41">
    <path clip-path="url(#p831d2fa11e)" d="M 179.820739 78909.782711 
L 182.864375 78909.782711 
L 182.864375 78909.782711 
L 179.820739 78909.782711 
z
" style="fill:#1f77b4;"/>
   </g>
   <g id="patch_42">
    <path clip-path="url(#p831d2fa11e)" d="M 182.864375 78909.782711 
L 185.908011 78909.782711 
L 185.908011 78909.782711 
L 182.864375 78909.782711 
z
" style="fill:#1f77b4;"/>
   </g>
   <g id="patch_43">
    <path clip-path="url(#p831d2fa11e)" d="M 185.908011 78909.782711 
L 188.951648 78909.782711 
L 188.951648 214.756364 
L 185.908011 214.756364 
z
" style="fill:#1f77b4;"/>
   </g>
   <g id="patch_44">
    <path clip-path="url(#p831d2fa11e)" d="M 188.951648 78909.782711 
L 191.995284 78909.782711 
L 191.995284 78909.782711 
L 188.951648 78909.782711 
z
" style="fill:#1f77b4;"/>
   </g>
   <g id="patch_45">
    <path clip-path="url(#p831d2fa11e)" d="M 191.995284 78909.782711 
L 195.03892 78909.782711 
L 195.03892 78909.782711 
L 191.995284 78909.782711 
z
" style="fill:#1f77b4;"/>
   </g>
   <g id="patch_46">
    <path clip-path="url(#p831d2fa11e)" d="M 195.03892 78909.782711 
L 198.082557 78909.782711 
L 198.082557 78909.782711 
L 195.03892 78909.782711 
z
" style="fill:#1f77b4;"/>
   </g>
   <g id="patch_47">
    <path clip-path="url(#p831d2fa11e)" d="M 198.082557 78909.782711 
L 201.126193 78909.782711 
L 201.126193 78909.782711 
L 198.082557 78909.782711 
z
" style="fill:#1f77b4;"/>
   </g>
   <g id="patch_48">
    <path clip-path="url(#p831d2fa11e)" d="M 201.126193 78909.782711 
L 204.16983 78909.782711 
L 204.16983 78909.782711 
L 201.126193 78909.782711 
z
" style="fill:#1f77b4;"/>
   </g>
   <g id="patch_49">
    <path clip-path="url(#p831d2fa11e)" d="M 204.16983 78909.782711 
L 207.213466 78909.782711 
L 207.213466 78909.782711 
L 204.16983 78909.782711 
z
" style="fill:#1f77b4;"/>
   </g>
   <g id="patch_50">
    <path clip-path="url(#p831d2fa11e)" d="M 207.213466 78909.782711 
L 210.257102 78909.782711 
L 210.257102 191.0668 
L 207.213466 191.0668 
z
" style="fill:#1f77b4;"/>
   </g>
   <g id="patch_51">
    <path clip-path="url(#p831d2fa11e)" d="M 210.257102 78909.782711 
L 213.300739 78909.782711 
L 213.300739 78909.782711 
L 210.257102 78909.782711 
z
" style="fill:#1f77b4;"/>
   </g>
   <g id="patch_52">
    <path clip-path="url(#p831d2fa11e)" d="M 213.300739 78909.782711 
L 216.344375 78909.782711 
L 216.344375 78909.782711 
L 213.300739 78909.782711 
z
" style="fill:#1f77b4;"/>
   </g>
   <g id="patch_53">
    <path clip-path="url(#p831d2fa11e)" d="M 216.344375 78909.782711 
L 219.388011 78909.782711 
L 219.388011 78909.782711 
L 216.344375 78909.782711 
z
" style="fill:#1f77b4;"/>
   </g>
   <g id="patch_54">
    <path clip-path="url(#p831d2fa11e)" d="M 219.388011 78909.782711 
L 222.431648 78909.782711 
L 222.431648 214.756364 
L 219.388011 214.756364 
z
" style="fill:#1f77b4;"/>
   </g>
   <g id="patch_55">
    <path clip-path="url(#p831d2fa11e)" d="M 222.431648 78909.782711 
L 225.475284 78909.782711 
L 225.475284 78909.782711 
L 222.431648 78909.782711 
z
" style="fill:#1f77b4;"/>
   </g>
   <g id="patch_56">
    <path clip-path="url(#p831d2fa11e)" d="M 225.475284 78909.782711 
L 228.51892 78909.782711 
L 228.51892 214.756364 
L 225.475284 214.756364 
z
" style="fill:#1f77b4;"/>
   </g>
   <g id="patch_57">
    <path clip-path="url(#p831d2fa11e)" d="M 228.51892 78909.782711 
L 231.562557 78909.782711 
L 231.562557 78909.782711 
L 228.51892 78909.782711 
z
" style="fill:#1f77b4;"/>
   </g>
   <g id="patch_58">
    <path clip-path="url(#p831d2fa11e)" d="M 231.562557 78909.782711 
L 234.606193 78909.782711 
L 234.606193 78909.782711 
L 231.562557 78909.782711 
z
" style="fill:#1f77b4;"/>
   </g>
   <g id="patch_59">
    <path clip-path="url(#p831d2fa11e)" d="M 234.606193 78909.782711 
L 237.64983 78909.782711 
L 237.64983 78909.782711 
L 234.606193 78909.782711 
z
" style="fill:#1f77b4;"/>
   </g>
   <g id="patch_60">
    <path clip-path="url(#p831d2fa11e)" d="M 237.64983 78909.782711 
L 240.693466 78909.782711 
L 240.693466 78909.782711 
L 237.64983 78909.782711 
z
" style="fill:#1f77b4;"/>
   </g>
   <g id="patch_61">
    <path clip-path="url(#p831d2fa11e)" d="M 240.693466 78909.782711 
L 243.737102 78909.782711 
L 243.737102 78909.782711 
L 240.693466 78909.782711 
z
" style="fill:#1f77b4;"/>
   </g>
   <g id="patch_62">
    <path clip-path="url(#p831d2fa11e)" d="M 243.737102 78909.782711 
L 246.780739 78909.782711 
L 246.780739 78909.782711 
L 243.737102 78909.782711 
z
" style="fill:#1f77b4;"/>
   </g>
   <g id="patch_63">
    <path clip-path="url(#p831d2fa11e)" d="M 246.780739 78909.782711 
L 249.824375 78909.782711 
L 249.824375 78909.782711 
L 246.780739 78909.782711 
z
" style="fill:#1f77b4;"/>
   </g>
   <g id="patch_64">
    <path clip-path="url(#p831d2fa11e)" d="M 249.824375 78909.782711 
L 252.868011 78909.782711 
L 252.868011 78909.782711 
L 249.824375 78909.782711 
z
" style="fill:#1f77b4;"/>
   </g>
   <g id="patch_65">
    <path clip-path="url(#p831d2fa11e)" d="M 252.868011 78909.782711 
L 255.911648 78909.782711 
L 255.911648 78909.782711 
L 252.868011 78909.782711 
z
" style="fill:#1f77b4;"/>
   </g>
   <g id="patch_66">
    <path clip-path="url(#p831d2fa11e)" d="M 255.911648 78909.782711 
L 258.955284 78909.782711 
L 258.955284 78909.782711 
L 255.911648 78909.782711 
z
" style="fill:#1f77b4;"/>
   </g>
   <g id="patch_67">
    <path clip-path="url(#p831d2fa11e)" d="M 258.955284 78909.782711 
L 261.99892 78909.782711 
L 261.99892 78909.782711 
L 258.955284 78909.782711 
z
" style="fill:#1f77b4;"/>
   </g>
   <g id="patch_68">
    <path clip-path="url(#p831d2fa11e)" d="M 261.99892 78909.782711 
L 265.042557 78909.782711 
L 265.042557 78909.782711 
L 261.99892 78909.782711 
z
" style="fill:#1f77b4;"/>
   </g>
   <g id="patch_69">
    <path clip-path="url(#p831d2fa11e)" d="M 265.042557 78909.782711 
L 268.086193 78909.782711 
L 268.086193 78909.782711 
L 265.042557 78909.782711 
z
" style="fill:#1f77b4;"/>
   </g>
   <g id="patch_70">
    <path clip-path="url(#p831d2fa11e)" d="M 268.086193 78909.782711 
L 271.12983 78909.782711 
L 271.12983 78909.782711 
L 268.086193 78909.782711 
z
" style="fill:#1f77b4;"/>
   </g>
   <g id="patch_71">
    <path clip-path="url(#p831d2fa11e)" d="M 271.12983 78909.782711 
L 274.173466 78909.782711 
L 274.173466 78909.782711 
L 271.12983 78909.782711 
z
" style="fill:#1f77b4;"/>
   </g>
   <g id="patch_72">
    <path clip-path="url(#p831d2fa11e)" d="M 274.173466 78909.782711 
L 277.217102 78909.782711 
L 277.217102 78909.782711 
L 274.173466 78909.782711 
z
" style="fill:#1f77b4;"/>
   </g>
   <g id="patch_73">
    <path clip-path="url(#p831d2fa11e)" d="M 277.217102 78909.782711 
L 280.260739 78909.782711 
L 280.260739 78909.782711 
L 277.217102 78909.782711 
z
" style="fill:#1f77b4;"/>
   </g>
   <g id="patch_74">
    <path clip-path="url(#p831d2fa11e)" d="M 280.260739 78909.782711 
L 283.304375 78909.782711 
L 283.304375 214.756364 
L 280.260739 214.756364 
z
" style="fill:#1f77b4;"/>
   </g>
   <g id="patch_75">
    <path clip-path="url(#p831d2fa11e)" d="M 283.304375 78909.782711 
L 286.348011 78909.782711 
L 286.348011 78909.782711 
L 283.304375 78909.782711 
z
" style="fill:#1f77b4;"/>
   </g>
   <g id="patch_76">
    <path clip-path="url(#p831d2fa11e)" d="M 286.348011 78909.782711 
L 289.391648 78909.782711 
L 289.391648 78909.782711 
L 286.348011 78909.782711 
z
" style="fill:#1f77b4;"/>
   </g>
   <g id="patch_77">
    <path clip-path="url(#p831d2fa11e)" d="M 289.391648 78909.782711 
L 292.435284 78909.782711 
L 292.435284 78909.782711 
L 289.391648 78909.782711 
z
" style="fill:#1f77b4;"/>
   </g>
   <g id="patch_78">
    <path clip-path="url(#p831d2fa11e)" d="M 292.435284 78909.782711 
L 295.47892 78909.782711 
L 295.47892 214.756364 
L 292.435284 214.756364 
z
" style="fill:#1f77b4;"/>
   </g>
   <g id="patch_79">
    <path clip-path="url(#p831d2fa11e)" d="M 295.47892 78909.782711 
L 298.522557 78909.782711 
L 298.522557 78909.782711 
L 295.47892 78909.782711 
z
" style="fill:#1f77b4;"/>
   </g>
   <g id="patch_80">
    <path clip-path="url(#p831d2fa11e)" d="M 298.522557 78909.782711 
L 301.566193 78909.782711 
L 301.566193 78909.782711 
L 298.522557 78909.782711 
z
" style="fill:#1f77b4;"/>
   </g>
   <g id="patch_81">
    <path clip-path="url(#p831d2fa11e)" d="M 301.566193 78909.782711 
L 304.60983 78909.782711 
L 304.60983 78909.782711 
L 301.566193 78909.782711 
z
" style="fill:#1f77b4;"/>
   </g>
   <g id="patch_82">
    <path clip-path="url(#p831d2fa11e)" d="M 304.60983 78909.782711 
L 307.653466 78909.782711 
L 307.653466 78909.782711 
L 304.60983 78909.782711 
z
" style="fill:#1f77b4;"/>
   </g>
   <g id="patch_83">
    <path clip-path="url(#p831d2fa11e)" d="M 307.653466 78909.782711 
L 310.697102 78909.782711 
L 310.697102 78909.782711 
L 307.653466 78909.782711 
z
" style="fill:#1f77b4;"/>
   </g>
   <g id="patch_84">
    <path clip-path="url(#p831d2fa11e)" d="M 310.697102 78909.782711 
L 313.740739 78909.782711 
L 313.740739 78909.782711 
L 310.697102 78909.782711 
z
" style="fill:#1f77b4;"/>
   </g>
   <g id="patch_85">
    <path clip-path="url(#p831d2fa11e)" d="M 313.740739 78909.782711 
L 316.784375 78909.782711 
L 316.784375 78909.782711 
L 313.740739 78909.782711 
z
" style="fill:#1f77b4;"/>
   </g>
   <g id="patch_86">
    <path clip-path="url(#p831d2fa11e)" d="M 316.784375 78909.782711 
L 319.828011 78909.782711 
L 319.828011 78909.782711 
L 316.784375 78909.782711 
z
" style="fill:#1f77b4;"/>
   </g>
   <g id="patch_87">
    <path clip-path="url(#p831d2fa11e)" d="M 319.828011 78909.782711 
L 322.871648 78909.782711 
L 322.871648 78909.782711 
L 319.828011 78909.782711 
z
" style="fill:#1f77b4;"/>
   </g>
   <g id="patch_88">
    <path clip-path="url(#p831d2fa11e)" d="M 322.871648 78909.782711 
L 325.915284 78909.782711 
L 325.915284 78909.782711 
L 322.871648 78909.782711 
z
" style="fill:#1f77b4;"/>
   </g>
   <g id="patch_89">
    <path clip-path="url(#p831d2fa11e)" d="M 325.915284 78909.782711 
L 328.95892 78909.782711 
L 328.95892 78909.782711 
L 325.915284 78909.782711 
z
" style="fill:#1f77b4;"/>
   </g>
   <g id="patch_90">
    <path clip-path="url(#p831d2fa11e)" d="M 328.95892 78909.782711 
L 332.002557 78909.782711 
L 332.002557 78909.782711 
L 328.95892 78909.782711 
z
" style="fill:#1f77b4;"/>
   </g>
   <g id="patch_91">
    <path clip-path="url(#p831d2fa11e)" d="M 332.002557 78909.782711 
L 335.046193 78909.782711 
L 335.046193 78909.782711 
L 332.002557 78909.782711 
z
" style="fill:#1f77b4;"/>
   </g>
   <g id="patch_92">
    <path clip-path="url(#p831d2fa11e)" d="M 335.046193 78909.782711 
L 338.08983 78909.782711 
L 338.08983 78909.782711 
L 335.046193 78909.782711 
z
" style="fill:#1f77b4;"/>
   </g>
   <g id="patch_93">
    <path clip-path="url(#p831d2fa11e)" d="M 338.08983 78909.782711 
L 341.133466 78909.782711 
L 341.133466 78909.782711 
L 338.08983 78909.782711 
z
" style="fill:#1f77b4;"/>
   </g>
   <g id="patch_94">
    <path clip-path="url(#p831d2fa11e)" d="M 341.133466 78909.782711 
L 344.177102 78909.782711 
L 344.177102 78909.782711 
L 341.133466 78909.782711 
z
" style="fill:#1f77b4;"/>
   </g>
   <g id="patch_95">
    <path clip-path="url(#p831d2fa11e)" d="M 344.177102 78909.782711 
L 347.220739 78909.782711 
L 347.220739 78909.782711 
L 344.177102 78909.782711 
z
" style="fill:#1f77b4;"/>
   </g>
   <g id="patch_96">
    <path clip-path="url(#p831d2fa11e)" d="M 347.220739 78909.782711 
L 350.264375 78909.782711 
L 350.264375 78909.782711 
L 347.220739 78909.782711 
z
" style="fill:#1f77b4;"/>
   </g>
   <g id="patch_97">
    <path clip-path="url(#p831d2fa11e)" d="M 350.264375 78909.782711 
L 353.308011 78909.782711 
L 353.308011 78909.782711 
L 350.264375 78909.782711 
z
" style="fill:#1f77b4;"/>
   </g>
   <g id="patch_98">
    <path clip-path="url(#p831d2fa11e)" d="M 353.308011 78909.782711 
L 356.351648 78909.782711 
L 356.351648 214.756364 
L 353.308011 214.756364 
z
" style="fill:#1f77b4;"/>
   </g>
   <g id="patch_99">
    <path clip-path="url(#p831d2fa11e)" d="M 356.351648 78909.782711 
L 359.395284 78909.782711 
L 359.395284 78909.782711 
L 356.351648 78909.782711 
z
" style="fill:#1f77b4;"/>
   </g>
   <g id="patch_100">
    <path clip-path="url(#p831d2fa11e)" d="M 359.395284 78909.782711 
L 362.43892 78909.782711 
L 362.43892 78909.782711 
L 359.395284 78909.782711 
z
" style="fill:#1f77b4;"/>
   </g>
   <g id="patch_101">
    <path clip-path="url(#p831d2fa11e)" d="M 362.43892 78909.782711 
L 365.482557 78909.782711 
L 365.482557 78909.782711 
L 362.43892 78909.782711 
z
" style="fill:#1f77b4;"/>
   </g>
   <g id="patch_102">
    <path clip-path="url(#p831d2fa11e)" d="M 365.482557 78909.782711 
L 368.526193 78909.782711 
L 368.526193 214.756364 
L 365.482557 214.756364 
z
" style="fill:#1f77b4;"/>
   </g>
   <g id="matplotlib.axis_1">
    <g id="xtick_1">
     <g id="line2d_1">
      <defs>
       <path d="M 0 0 
L 0 6 
" id="m6dbac3ecd1" style="stroke:#000000;stroke-width:1.25;"/>
      </defs>
      <g>
       <use style="stroke:#000000;stroke-width:1.25;" x="64.117699" xlink:href="#m6dbac3ecd1" y="224.64"/>
      </g>
     </g>
     <g id="text_1">
      <text style="font-family:Arial;font-size:11px;font-style:normal;font-weight:normal;text-anchor:middle;" transform="rotate(-0, 64.117699, 242.013594)" x="64.117699" y="242.013594">0</text>
     </g>
    </g>
    <g id="xtick_2">
     <g id="line2d_2">
      <g>
       <use style="stroke:#000000;stroke-width:1.25;" x="108.976009" xlink:href="#m6dbac3ecd1" y="224.64"/>
      </g>
     </g>
     <g id="text_2">
      <text style="font-family:Arial;font-size:11px;font-style:normal;font-weight:normal;text-anchor:middle;" transform="rotate(-0, 108.976009, 242.013594)" x="108.976009" y="242.013594">1000</text>
     </g>
    </g>
    <g id="xtick_3">
     <g id="line2d_3">
      <g>
       <use style="stroke:#000000;stroke-width:1.25;" x="153.834319" xlink:href="#m6dbac3ecd1" y="224.64"/>
      </g>
     </g>
     <g id="text_3">
      <text style="font-family:Arial;font-size:11px;font-style:normal;font-weight:normal;text-anchor:middle;" transform="rotate(-0, 153.834319, 242.013594)" x="153.834319" y="242.013594">2000</text>
     </g>
    </g>
    <g id="xtick_4">
     <g id="line2d_4">
      <g>
       <use style="stroke:#000000;stroke-width:1.25;" x="198.69263" xlink:href="#m6dbac3ecd1" y="224.64"/>
      </g>
     </g>
     <g id="text_4">
      <text style="font-family:Arial;font-size:11px;font-style:normal;font-weight:normal;text-anchor:middle;" transform="rotate(-0, 198.69263, 242.013594)" x="198.69263" y="242.013594">3000</text>
     </g>
    </g>
    <g id="xtick_5">
     <g id="line2d_5">
      <g>
       <use style="stroke:#000000;stroke-width:1.25;" x="243.55094" xlink:href="#m6dbac3ecd1" y="224.64"/>
      </g>
     </g>
     <g id="text_5">
      <text style="font-family:Arial;font-size:11px;font-style:normal;font-weight:normal;text-anchor:middle;" transform="rotate(-0, 243.55094, 242.013594)" x="243.55094" y="242.013594">4000</text>
     </g>
    </g>
    <g id="xtick_6">
     <g id="line2d_6">
      <g>
       <use style="stroke:#000000;stroke-width:1.25;" x="288.409251" xlink:href="#m6dbac3ecd1" y="224.64"/>
      </g>
     </g>
     <g id="text_6">
      <text style="font-family:Arial;font-size:11px;font-style:normal;font-weight:normal;text-anchor:middle;" transform="rotate(-0, 288.409251, 242.013594)" x="288.409251" y="242.013594">5000</text>
     </g>
    </g>
    <g id="xtick_7">
     <g id="line2d_7">
      <g>
       <use style="stroke:#000000;stroke-width:1.25;" x="333.267561" xlink:href="#m6dbac3ecd1" y="224.64"/>
      </g>
     </g>
     <g id="text_7">
      <text style="font-family:Arial;font-size:11px;font-style:normal;font-weight:normal;text-anchor:middle;" transform="rotate(-0, 333.267561, 242.013594)" x="333.267561" y="242.013594">6000</text>
     </g>
    </g>
    <g id="xtick_8">
     <g id="line2d_8">
      <g>
       <use style="stroke:#000000;stroke-width:1.25;" x="378.125872" xlink:href="#m6dbac3ecd1" y="224.64"/>
      </g>
     </g>
     <g id="text_8">
      <text style="font-family:Arial;font-size:11px;font-style:normal;font-weight:normal;text-anchor:middle;" transform="rotate(-0, 378.125872, 242.013594)" x="378.125872" y="242.013594">7000</text>
     </g>
    </g>
    <g id="text_9">
     <text style="font-family:Arial;font-size:12px;font-style:normal;font-weight:normal;text-anchor:middle;" transform="rotate(-0, 216.344375, 256.935469)" x="216.344375" y="256.935469">Number of ratings per contributor</text>
    </g>
   </g>
   <g id="matplotlib.axis_2">
    <g id="ytick_1">
     <g id="line2d_9">
      <defs>
       <path d="M 0 0 
L -6 0 
" id="m4226f0bfcd" style="stroke:#000000;stroke-width:1.25;"/>
      </defs>
      <g>
       <use style="stroke:#000000;stroke-width:1.25;" x="48.944375" xlink:href="#m4226f0bfcd" y="214.756364"/>
      </g>
     </g>
     <g id="text_10">
      <!-- $\mathdefault{10^{0}}$ -->
      <g transform="translate(22.174375 220.428239)">
       <text>
        <tspan style="font-family:Arial;font-size:11px;font-style:regular;font-weight:regular;" x="0 6.117676" y="-0.799312500000001">10</tspan>
        <tspan style="font-family:Arial;font-size:7.7px;font-style:regular;font-weight:regular;" x="12.427009" y="-8.465625">0</tspan>
       </text>
      </g>
     </g>
    </g>
    <g id="ytick_2">
     <g id="line2d_10">
      <g>
       <use style="stroke:#000000;stroke-width:1.25;" x="48.944375" xlink:href="#m4226f0bfcd" y="136.061337"/>
      </g>
     </g>
     <g id="text_11">
      <!-- $\mathdefault{10^{1}}$ -->
      <g transform="translate(22.174375 141.733212)">
       <text>
        <tspan style="font-family:Arial;font-size:11px;font-style:regular;font-weight:regular;" x="0 6.117676" y="-0.799312500000001">10</tspan>
        <tspan style="font-family:Arial;font-size:7.7px;font-style:regular;font-weight:regular;" x="12.427009" y="-8.465625">1</tspan>
       </text>
      </g>
     </g>
    </g>
    <g id="ytick_3">
     <g id="line2d_11">
      <g>
       <use style="stroke:#000000;stroke-width:1.25;" x="48.944375" xlink:href="#m4226f0bfcd" y="57.366311"/>
      </g>
     </g>
     <g id="text_12">
      <!-- $\mathdefault{10^{2}}$ -->
      <g transform="translate(22.174375 63.038186)">
       <text>
        <tspan style="font-family:Arial;font-size:11px;font-style:regular;font-weight:regular;" x="0 6.117676" y="-0.799312500000001">10</tspan>
        <tspan style="font-family:Arial;font-size:7.7px;font-style:regular;font-weight:regular;" x="12.427009" y="-8.465625">2</tspan>
       </text>
      </g>
     </g>
    </g>
    <g id="ytick_4">
     <g id="line2d_12">
      <defs>
       <path d="M 0 0 
L -4 0 
" id="m1ee1ddb264" style="stroke:#000000;"/>
      </defs>
      <g>
       <use style="stroke:#000000;" x="48.944375" xlink:href="#m1ee1ddb264" y="222.3827"/>
      </g>
     </g>
    </g>
    <g id="ytick_5">
     <g id="line2d_13">
      <g>
       <use style="stroke:#000000;" x="48.944375" xlink:href="#m1ee1ddb264" y="218.357251"/>
      </g>
     </g>
    </g>
    <g id="ytick_6">
     <g id="line2d_14">
      <g>
       <use style="stroke:#000000;" x="48.944375" xlink:href="#m1ee1ddb264" y="191.0668"/>
      </g>
     </g>
    </g>
    <g id="ytick_7">
     <g id="line2d_15">
      <g>
       <use style="stroke:#000000;" x="48.944375" xlink:href="#m1ee1ddb264" y="177.209294"/>
      </g>
     </g>
    </g>
    <g id="ytick_8">
     <g id="line2d_16">
      <g>
       <use style="stroke:#000000;" x="48.944375" xlink:href="#m1ee1ddb264" y="167.377237"/>
      </g>
     </g>
    </g>
    <g id="ytick_9">
     <g id="line2d_17">
      <g>
       <use style="stroke:#000000;" x="48.944375" xlink:href="#m1ee1ddb264" y="159.750901"/>
      </g>
     </g>
    </g>
    <g id="ytick_10">
     <g id="line2d_18">
      <g>
       <use style="stroke:#000000;" x="48.944375" xlink:href="#m1ee1ddb264" y="153.51973"/>
      </g>
     </g>
    </g>
    <g id="ytick_11">
     <g id="line2d_19">
      <g>
       <use style="stroke:#000000;" x="48.944375" xlink:href="#m1ee1ddb264" y="148.251351"/>
      </g>
     </g>
    </g>
    <g id="ytick_12">
     <g id="line2d_20">
      <g>
       <use style="stroke:#000000;" x="48.944375" xlink:href="#m1ee1ddb264" y="143.687673"/>
      </g>
     </g>
    </g>
    <g id="ytick_13">
     <g id="line2d_21">
      <g>
       <use style="stroke:#000000;" x="48.944375" xlink:href="#m1ee1ddb264" y="139.662224"/>
      </g>
     </g>
    </g>
    <g id="ytick_14">
     <g id="line2d_22">
      <g>
       <use style="stroke:#000000;" x="48.944375" xlink:href="#m1ee1ddb264" y="112.371774"/>
      </g>
     </g>
    </g>
    <g id="ytick_15">
     <g id="line2d_23">
      <g>
       <use style="stroke:#000000;" x="48.944375" xlink:href="#m1ee1ddb264" y="98.514268"/>
      </g>
     </g>
    </g>
    <g id="ytick_16">
     <g id="line2d_24">
      <g>
       <use style="stroke:#000000;" x="48.944375" xlink:href="#m1ee1ddb264" y="88.68221"/>
      </g>
     </g>
    </g>
    <g id="ytick_17">
     <g id="line2d_25">
      <g>
       <use style="stroke:#000000;" x="48.944375" xlink:href="#m1ee1ddb264" y="81.055874"/>
      </g>
     </g>
    </g>
    <g id="ytick_18">
     <g id="line2d_26">
      <g>
       <use style="stroke:#000000;" x="48.944375" xlink:href="#m1ee1ddb264" y="74.824704"/>
      </g>
     </g>
    </g>
    <g id="ytick_19">
     <g id="line2d_27">
      <g>
       <use style="stroke:#000000;" x="48.944375" xlink:href="#m1ee1ddb264" y="69.556325"/>
      </g>
     </g>
    </g>
    <g id="ytick_20">
     <g id="line2d_28">
      <g>
       <use style="stroke:#000000;" x="48.944375" xlink:href="#m1ee1ddb264" y="64.992647"/>
      </g>
     </g>
    </g>
    <g id="ytick_21">
     <g id="line2d_29">
      <g>
       <use style="stroke:#000000;" x="48.944375" xlink:href="#m1ee1ddb264" y="60.967198"/>
      </g>
     </g>
    </g>
    <g id="ytick_22">
     <g id="line2d_30">
      <g>
       <use style="stroke:#000000;" x="48.944375" xlink:href="#m1ee1ddb264" y="33.676748"/>
      </g>
     </g>
    </g>
    <g id="ytick_23">
     <g id="line2d_31">
      <g>
       <use style="stroke:#000000;" x="48.944375" xlink:href="#m1ee1ddb264" y="19.819241"/>
      </g>
     </g>
    </g>
    <g id="ytick_24">
     <g id="line2d_32">
      <g>
       <use style="stroke:#000000;" x="48.944375" xlink:href="#m1ee1ddb264" y="9.987184"/>
      </g>
     </g>
    </g>
    <g id="text_13">
     <text style="font-family:Arial;font-size:12px;font-style:normal;font-weight:normal;text-anchor:middle;" transform="rotate(-90, 15.789375, 115.92)" x="15.789375" y="115.92">Number of contributors</text>
    </g>
   </g>
   <g id="patch_103">
    <path d="M 48.944375 224.64 
L 48.944375 7.2 
" style="fill:none;stroke:#000000;stroke-linecap:square;stroke-linejoin:miter;stroke-width:1.25;"/>
   </g>
   <g id="patch_104">
    <path d="M 383.744375 224.64 
L 383.744375 7.2 
" style="fill:none;stroke:#000000;stroke-linecap:square;stroke-linejoin:miter;stroke-width:1.25;"/>
   </g>
   <g id="patch_105">
    <path d="M 48.944375 224.64 
L 383.744375 224.64 
" style="fill:none;stroke:#000000;stroke-linecap:square;stroke-linejoin:miter;stroke-width:1.25;"/>
   </g>
   <g id="patch_106">
    <path d="M 48.944375 7.2 
L 383.744375 7.2 
" style="fill:none;stroke:#000000;stroke-linecap:square;stroke-linejoin:miter;stroke-width:1.25;"/>
   </g>
  </g>
 </g>
 <defs>
  <clipPath id="p831d2fa11e">
   <rect height="217.44" width="334.8" x="48.944375" y="7.2"/>
  </clipPath>
 </defs>
</svg>
