<?xml version="1.0" encoding="utf-8" standalone="no"?>
<!DOCTYPE svg PUBLIC "-//W3C//DTD SVG 1.1//EN"
  "http://www.w3.org/Graphics/SVG/1.1/DTD/svg11.dtd">
<!-- Created with matplotlib (https://matplotlib.org/) -->
<svg height="266.661094pt" version="1.1" viewBox="0 0 398.641028 266.661094" width="398.641028pt" xmlns="http://www.w3.org/2000/svg" xmlns:xlink="http://www.w3.org/1999/xlink">
 <defs>
  <style type="text/css">
*{stroke-linecap:butt;stroke-linejoin:round;}
  </style>
 </defs>
 <g id="figure_1">
  <g id="patch_1">
   <path d="M -0 266.661094 
L 398.641028 266.661094 
L 398.641028 0 
L -0 0 
z
" style="fill:none;"/>
  </g>
  <g id="axes_1">
   <g id="patch_2">
    <path d="M 50.025469 224.64 
L 384.825469 224.64 
L 384.825469 7.2 
L 50.025469 7.2 
z
" style="fill:none;"/>
   </g>
   <g id="patch_3">
    <path clip-path="url(#p0fd520097e)" d="M 65.243651 224.64 
L 68.287287 224.64 
L 68.287287 17.554286 
L 65.243651 17.554286 
z
" style="fill:#1f77b4;"/>
   </g>
   <g id="patch_4">
    <path clip-path="url(#p0fd520097e)" d="M 68.287287 224.64 
L 71.330923 224.64 
L 71.330923 215.719385 
L 68.287287 215.719385 
z
" style="fill:#1f77b4;"/>
   </g>
   <g id="patch_5">
    <path clip-path="url(#p0fd520097e)" d="M 71.330923 224.64 
L 74.37456 224.64 
L 74.37456 220.179692 
L 71.330923 220.179692 
z
" style="fill:#1f77b4;"/>
   </g>
   <g id="patch_6">
    <path clip-path="url(#p0fd520097e)" d="M 74.37456 224.64 
L 77.418196 224.64 
L 77.418196 221.454066 
L 74.37456 221.454066 
z
" style="fill:#1f77b4;"/>
   </g>
   <g id="patch_7">
    <path clip-path="url(#p0fd520097e)" d="M 77.418196 224.64 
L 80.461832 224.64 
L 80.461832 220.816879 
L 77.418196 220.816879 
z
" style="fill:#1f77b4;"/>
   </g>
   <g id="patch_8">
    <path clip-path="url(#p0fd520097e)" d="M 80.461832 224.64 
L 83.505469 224.64 
L 83.505469 223.365626 
L 80.461832 223.365626 
z
" style="fill:#1f77b4;"/>
   </g>
   <g id="patch_9">
    <path clip-path="url(#p0fd520097e)" d="M 83.505469 224.64 
L 86.549105 224.64 
L 86.549105 224.002813 
L 83.505469 224.002813 
z
" style="fill:#1f77b4;"/>
   </g>
   <g id="patch_10">
    <path clip-path="url(#p0fd520097e)" d="M 86.549105 224.64 
L 89.592741 224.64 
L 89.592741 223.365626 
L 86.549105 223.365626 
z
" style="fill:#1f77b4;"/>
   </g>
   <g id="patch_11">
    <path clip-path="url(#p0fd520097e)" d="M 89.592741 224.64 
L 92.636378 224.64 
L 92.636378 224.64 
L 89.592741 224.64 
z
" style="fill:#1f77b4;"/>
   </g>
   <g id="patch_12">
    <path clip-path="url(#p0fd520097e)" d="M 92.636378 224.64 
L 95.680014 224.64 
L 95.680014 224.64 
L 92.636378 224.64 
z
" style="fill:#1f77b4;"/>
   </g>
   <g id="patch_13">
    <path clip-path="url(#p0fd520097e)" d="M 95.680014 224.64 
L 98.723651 224.64 
L 98.723651 222.72844 
L 95.680014 222.72844 
z
" style="fill:#1f77b4;"/>
   </g>
   <g id="patch_14">
    <path clip-path="url(#p0fd520097e)" d="M 98.723651 224.64 
L 101.767287 224.64 
L 101.767287 224.002813 
L 98.723651 224.002813 
z
" style="fill:#1f77b4;"/>
   </g>
   <g id="patch_15">
    <path clip-path="url(#p0fd520097e)" d="M 101.767287 224.64 
L 104.810923 224.64 
L 104.810923 223.365626 
L 101.767287 223.365626 
z
" style="fill:#1f77b4;"/>
   </g>
   <g id="patch_16">
    <path clip-path="url(#p0fd520097e)" d="M 104.810923 224.64 
L 107.85456 224.64 
L 107.85456 224.64 
L 104.810923 224.64 
z
" style="fill:#1f77b4;"/>
   </g>
   <g id="patch_17">
    <path clip-path="url(#p0fd520097e)" d="M 107.85456 224.64 
L 110.898196 224.64 
L 110.898196 224.64 
L 107.85456 224.64 
z
" style="fill:#1f77b4;"/>
   </g>
   <g id="patch_18">
    <path clip-path="url(#p0fd520097e)" d="M 110.898196 224.64 
L 113.941832 224.64 
L 113.941832 224.002813 
L 110.898196 224.002813 
z
" style="fill:#1f77b4;"/>
   </g>
   <g id="patch_19">
    <path clip-path="url(#p0fd520097e)" d="M 113.941832 224.64 
L 116.985469 224.64 
L 116.985469 224.002813 
L 113.941832 224.002813 
z
" style="fill:#1f77b4;"/>
   </g>
   <g id="patch_20">
    <path clip-path="url(#p0fd520097e)" d="M 116.985469 224.64 
L 120.029105 224.64 
L 120.029105 224.64 
L 116.985469 224.64 
z
" style="fill:#1f77b4;"/>
   </g>
   <g id="patch_21">
    <path clip-path="url(#p0fd520097e)" d="M 120.029105 224.64 
L 123.072741 224.64 
L 123.072741 224.64 
L 120.029105 224.64 
z
" style="fill:#1f77b4;"/>
   </g>
   <g id="patch_22">
    <path clip-path="url(#p0fd520097e)" d="M 123.072741 224.64 
L 126.116378 224.64 
L 126.116378 224.002813 
L 123.072741 224.002813 
z
" style="fill:#1f77b4;"/>
   </g>
   <g id="patch_23">
    <path clip-path="url(#p0fd520097e)" d="M 126.116378 224.64 
L 129.160014 224.64 
L 129.160014 224.64 
L 126.116378 224.64 
z
" style="fill:#1f77b4;"/>
   </g>
   <g id="patch_24">
    <path clip-path="url(#p0fd520097e)" d="M 129.160014 224.64 
L 132.203651 224.64 
L 132.203651 224.64 
L 129.160014 224.64 
z
" style="fill:#1f77b4;"/>
   </g>
   <g id="patch_25">
    <path clip-path="url(#p0fd520097e)" d="M 132.203651 224.64 
L 135.247287 224.64 
L 135.247287 224.64 
L 132.203651 224.64 
z
" style="fill:#1f77b4;"/>
   </g>
   <g id="patch_26">
    <path clip-path="url(#p0fd520097e)" d="M 135.247287 224.64 
L 138.290923 224.64 
L 138.290923 224.002813 
L 135.247287 224.002813 
z
" style="fill:#1f77b4;"/>
   </g>
   <g id="patch_27">
    <path clip-path="url(#p0fd520097e)" d="M 138.290923 224.64 
L 141.33456 224.64 
L 141.33456 223.365626 
L 138.290923 223.365626 
z
" style="fill:#1f77b4;"/>
   </g>
   <g id="patch_28">
    <path clip-path="url(#p0fd520097e)" d="M 141.33456 224.64 
L 144.378196 224.64 
L 144.378196 224.64 
L 141.33456 224.64 
z
" style="fill:#1f77b4;"/>
   </g>
   <g id="patch_29">
    <path clip-path="url(#p0fd520097e)" d="M 144.378196 224.64 
L 147.421832 224.64 
L 147.421832 222.72844 
L 144.378196 222.72844 
z
" style="fill:#1f77b4;"/>
   </g>
   <g id="patch_30">
    <path clip-path="url(#p0fd520097e)" d="M 147.421832 224.64 
L 150.465469 224.64 
L 150.465469 224.64 
L 147.421832 224.64 
z
" style="fill:#1f77b4;"/>
   </g>
   <g id="patch_31">
    <path clip-path="url(#p0fd520097e)" d="M 150.465469 224.64 
L 153.509105 224.64 
L 153.509105 224.64 
L 150.465469 224.64 
z
" style="fill:#1f77b4;"/>
   </g>
   <g id="patch_32">
    <path clip-path="url(#p0fd520097e)" d="M 153.509105 224.64 
L 156.552741 224.64 
L 156.552741 224.64 
L 153.509105 224.64 
z
" style="fill:#1f77b4;"/>
   </g>
   <g id="patch_33">
    <path clip-path="url(#p0fd520097e)" d="M 156.552741 224.64 
L 159.596378 224.64 
L 159.596378 224.002813 
L 156.552741 224.002813 
z
" style="fill:#1f77b4;"/>
   </g>
   <g id="patch_34">
    <path clip-path="url(#p0fd520097e)" d="M 159.596378 224.64 
L 162.640014 224.64 
L 162.640014 224.64 
L 159.596378 224.64 
z
" style="fill:#1f77b4;"/>
   </g>
   <g id="patch_35">
    <path clip-path="url(#p0fd520097e)" d="M 162.640014 224.64 
L 165.683651 224.64 
L 165.683651 224.64 
L 162.640014 224.64 
z
" style="fill:#1f77b4;"/>
   </g>
   <g id="patch_36">
    <path clip-path="url(#p0fd520097e)" d="M 165.683651 224.64 
L 168.727287 224.64 
L 168.727287 224.64 
L 165.683651 224.64 
z
" style="fill:#1f77b4;"/>
   </g>
   <g id="patch_37">
    <path clip-path="url(#p0fd520097e)" d="M 168.727287 224.64 
L 171.770923 224.64 
L 171.770923 224.64 
L 168.727287 224.64 
z
" style="fill:#1f77b4;"/>
   </g>
   <g id="patch_38">
    <path clip-path="url(#p0fd520097e)" d="M 171.770923 224.64 
L 174.81456 224.64 
L 174.81456 224.64 
L 171.770923 224.64 
z
" style="fill:#1f77b4;"/>
   </g>
   <g id="patch_39">
    <path clip-path="url(#p0fd520097e)" d="M 174.81456 224.64 
L 177.858196 224.64 
L 177.858196 224.64 
L 174.81456 224.64 
z
" style="fill:#1f77b4;"/>
   </g>
   <g id="patch_40">
    <path clip-path="url(#p0fd520097e)" d="M 177.858196 224.64 
L 180.901832 224.64 
L 180.901832 224.64 
L 177.858196 224.64 
z
" style="fill:#1f77b4;"/>
   </g>
   <g id="patch_41">
    <path clip-path="url(#p0fd520097e)" d="M 180.901832 224.64 
L 183.945469 224.64 
L 183.945469 224.64 
L 180.901832 224.64 
z
" style="fill:#1f77b4;"/>
   </g>
   <g id="patch_42">
    <path clip-path="url(#p0fd520097e)" d="M 183.945469 224.64 
L 186.989105 224.64 
L 186.989105 224.64 
L 183.945469 224.64 
z
" style="fill:#1f77b4;"/>
   </g>
   <g id="patch_43">
    <path clip-path="url(#p0fd520097e)" d="M 186.989105 224.64 
L 190.032741 224.64 
L 190.032741 224.002813 
L 186.989105 224.002813 
z
" style="fill:#1f77b4;"/>
   </g>
   <g id="patch_44">
    <path clip-path="url(#p0fd520097e)" d="M 190.032741 224.64 
L 193.076378 224.64 
L 193.076378 224.64 
L 190.032741 224.64 
z
" style="fill:#1f77b4;"/>
   </g>
   <g id="patch_45">
    <path clip-path="url(#p0fd520097e)" d="M 193.076378 224.64 
L 196.120014 224.64 
L 196.120014 224.64 
L 193.076378 224.64 
z
" style="fill:#1f77b4;"/>
   </g>
   <g id="patch_46">
    <path clip-path="url(#p0fd520097e)" d="M 196.120014 224.64 
L 199.163651 224.64 
L 199.163651 224.64 
L 196.120014 224.64 
z
" style="fill:#1f77b4;"/>
   </g>
   <g id="patch_47">
    <path clip-path="url(#p0fd520097e)" d="M 199.163651 224.64 
L 202.207287 224.64 
L 202.207287 224.64 
L 199.163651 224.64 
z
" style="fill:#1f77b4;"/>
   </g>
   <g id="patch_48">
    <path clip-path="url(#p0fd520097e)" d="M 202.207287 224.64 
L 205.250923 224.64 
L 205.250923 224.64 
L 202.207287 224.64 
z
" style="fill:#1f77b4;"/>
   </g>
   <g id="patch_49">
    <path clip-path="url(#p0fd520097e)" d="M 205.250923 224.64 
L 208.29456 224.64 
L 208.29456 224.64 
L 205.250923 224.64 
z
" style="fill:#1f77b4;"/>
   </g>
   <g id="patch_50">
    <path clip-path="url(#p0fd520097e)" d="M 208.29456 224.64 
L 211.338196 224.64 
L 211.338196 223.365626 
L 208.29456 223.365626 
z
" style="fill:#1f77b4;"/>
   </g>
   <g id="patch_51">
    <path clip-path="url(#p0fd520097e)" d="M 211.338196 224.64 
L 214.381832 224.64 
L 214.381832 224.64 
L 211.338196 224.64 
z
" style="fill:#1f77b4;"/>
   </g>
   <g id="patch_52">
    <path clip-path="url(#p0fd520097e)" d="M 214.381832 224.64 
L 217.425469 224.64 
L 217.425469 224.64 
L 214.381832 224.64 
z
" style="fill:#1f77b4;"/>
   </g>
   <g id="patch_53">
    <path clip-path="url(#p0fd520097e)" d="M 217.425469 224.64 
L 220.469105 224.64 
L 220.469105 224.64 
L 217.425469 224.64 
z
" style="fill:#1f77b4;"/>
   </g>
   <g id="patch_54">
    <path clip-path="url(#p0fd520097e)" d="M 220.469105 224.64 
L 223.512741 224.64 
L 223.512741 224.002813 
L 220.469105 224.002813 
z
" style="fill:#1f77b4;"/>
   </g>
   <g id="patch_55">
    <path clip-path="url(#p0fd520097e)" d="M 223.512741 224.64 
L 226.556378 224.64 
L 226.556378 224.64 
L 223.512741 224.64 
z
" style="fill:#1f77b4;"/>
   </g>
   <g id="patch_56">
    <path clip-path="url(#p0fd520097e)" d="M 226.556378 224.64 
L 229.600014 224.64 
L 229.600014 224.002813 
L 226.556378 224.002813 
z
" style="fill:#1f77b4;"/>
   </g>
   <g id="patch_57">
    <path clip-path="url(#p0fd520097e)" d="M 229.600014 224.64 
L 232.643651 224.64 
L 232.643651 224.64 
L 229.600014 224.64 
z
" style="fill:#1f77b4;"/>
   </g>
   <g id="patch_58">
    <path clip-path="url(#p0fd520097e)" d="M 232.643651 224.64 
L 235.687287 224.64 
L 235.687287 224.64 
L 232.643651 224.64 
z
" style="fill:#1f77b4;"/>
   </g>
   <g id="patch_59">
    <path clip-path="url(#p0fd520097e)" d="M 235.687287 224.64 
L 238.730923 224.64 
L 238.730923 224.64 
L 235.687287 224.64 
z
" style="fill:#1f77b4;"/>
   </g>
   <g id="patch_60">
    <path clip-path="url(#p0fd520097e)" d="M 238.730923 224.64 
L 241.77456 224.64 
L 241.77456 224.64 
L 238.730923 224.64 
z
" style="fill:#1f77b4;"/>
   </g>
   <g id="patch_61">
    <path clip-path="url(#p0fd520097e)" d="M 241.77456 224.64 
L 244.818196 224.64 
L 244.818196 224.64 
L 241.77456 224.64 
z
" style="fill:#1f77b4;"/>
   </g>
   <g id="patch_62">
    <path clip-path="url(#p0fd520097e)" d="M 244.818196 224.64 
L 247.861832 224.64 
L 247.861832 224.64 
L 244.818196 224.64 
z
" style="fill:#1f77b4;"/>
   </g>
   <g id="patch_63">
    <path clip-path="url(#p0fd520097e)" d="M 247.861832 224.64 
L 250.905469 224.64 
L 250.905469 224.64 
L 247.861832 224.64 
z
" style="fill:#1f77b4;"/>
   </g>
   <g id="patch_64">
    <path clip-path="url(#p0fd520097e)" d="M 250.905469 224.64 
L 253.949105 224.64 
L 253.949105 224.64 
L 250.905469 224.64 
z
" style="fill:#1f77b4;"/>
   </g>
   <g id="patch_65">
    <path clip-path="url(#p0fd520097e)" d="M 253.949105 224.64 
L 256.992741 224.64 
L 256.992741 224.64 
L 253.949105 224.64 
z
" style="fill:#1f77b4;"/>
   </g>
   <g id="patch_66">
    <path clip-path="url(#p0fd520097e)" d="M 256.992741 224.64 
L 260.036378 224.64 
L 260.036378 224.64 
L 256.992741 224.64 
z
" style="fill:#1f77b4;"/>
   </g>
   <g id="patch_67">
    <path clip-path="url(#p0fd520097e)" d="M 260.036378 224.64 
L 263.080014 224.64 
L 263.080014 224.64 
L 260.036378 224.64 
z
" style="fill:#1f77b4;"/>
   </g>
   <g id="patch_68">
    <path clip-path="url(#p0fd520097e)" d="M 263.080014 224.64 
L 266.123651 224.64 
L 266.123651 224.64 
L 263.080014 224.64 
z
" style="fill:#1f77b4;"/>
   </g>
   <g id="patch_69">
    <path clip-path="url(#p0fd520097e)" d="M 266.123651 224.64 
L 269.167287 224.64 
L 269.167287 224.64 
L 266.123651 224.64 
z
" style="fill:#1f77b4;"/>
   </g>
   <g id="patch_70">
    <path clip-path="url(#p0fd520097e)" d="M 269.167287 224.64 
L 272.210923 224.64 
L 272.210923 224.64 
L 269.167287 224.64 
z
" style="fill:#1f77b4;"/>
   </g>
   <g id="patch_71">
    <path clip-path="url(#p0fd520097e)" d="M 272.210923 224.64 
L 275.25456 224.64 
L 275.25456 224.64 
L 272.210923 224.64 
z
" style="fill:#1f77b4;"/>
   </g>
   <g id="patch_72">
    <path clip-path="url(#p0fd520097e)" d="M 275.25456 224.64 
L 278.298196 224.64 
L 278.298196 224.64 
L 275.25456 224.64 
z
" style="fill:#1f77b4;"/>
   </g>
   <g id="patch_73">
    <path clip-path="url(#p0fd520097e)" d="M 278.298196 224.64 
L 281.341832 224.64 
L 281.341832 224.64 
L 278.298196 224.64 
z
" style="fill:#1f77b4;"/>
   </g>
   <g id="patch_74">
    <path clip-path="url(#p0fd520097e)" d="M 281.341832 224.64 
L 284.385469 224.64 
L 284.385469 224.002813 
L 281.341832 224.002813 
z
" style="fill:#1f77b4;"/>
   </g>
   <g id="patch_75">
    <path clip-path="url(#p0fd520097e)" d="M 284.385469 224.64 
L 287.429105 224.64 
L 287.429105 224.64 
L 284.385469 224.64 
z
" style="fill:#1f77b4;"/>
   </g>
   <g id="patch_76">
    <path clip-path="url(#p0fd520097e)" d="M 287.429105 224.64 
L 290.472741 224.64 
L 290.472741 224.64 
L 287.429105 224.64 
z
" style="fill:#1f77b4;"/>
   </g>
   <g id="patch_77">
    <path clip-path="url(#p0fd520097e)" d="M 290.472741 224.64 
L 293.516378 224.64 
L 293.516378 224.64 
L 290.472741 224.64 
z
" style="fill:#1f77b4;"/>
   </g>
   <g id="patch_78">
    <path clip-path="url(#p0fd520097e)" d="M 293.516378 224.64 
L 296.560014 224.64 
L 296.560014 224.002813 
L 293.516378 224.002813 
z
" style="fill:#1f77b4;"/>
   </g>
   <g id="patch_79">
    <path clip-path="url(#p0fd520097e)" d="M 296.560014 224.64 
L 299.603651 224.64 
L 299.603651 224.64 
L 296.560014 224.64 
z
" style="fill:#1f77b4;"/>
   </g>
   <g id="patch_80">
    <path clip-path="url(#p0fd520097e)" d="M 299.603651 224.64 
L 302.647287 224.64 
L 302.647287 224.64 
L 299.603651 224.64 
z
" style="fill:#1f77b4;"/>
   </g>
   <g id="patch_81">
    <path clip-path="url(#p0fd520097e)" d="M 302.647287 224.64 
L 305.690923 224.64 
L 305.690923 224.64 
L 302.647287 224.64 
z
" style="fill:#1f77b4;"/>
   </g>
   <g id="patch_82">
    <path clip-path="url(#p0fd520097e)" d="M 305.690923 224.64 
L 308.73456 224.64 
L 308.73456 224.64 
L 305.690923 224.64 
z
" style="fill:#1f77b4;"/>
   </g>
   <g id="patch_83">
    <path clip-path="url(#p0fd520097e)" d="M 308.73456 224.64 
L 311.778196 224.64 
L 311.778196 224.64 
L 308.73456 224.64 
z
" style="fill:#1f77b4;"/>
   </g>
   <g id="patch_84">
    <path clip-path="url(#p0fd520097e)" d="M 311.778196 224.64 
L 314.821832 224.64 
L 314.821832 224.64 
L 311.778196 224.64 
z
" style="fill:#1f77b4;"/>
   </g>
   <g id="patch_85">
    <path clip-path="url(#p0fd520097e)" d="M 314.821832 224.64 
L 317.865469 224.64 
L 317.865469 224.64 
L 314.821832 224.64 
z
" style="fill:#1f77b4;"/>
   </g>
   <g id="patch_86">
    <path clip-path="url(#p0fd520097e)" d="M 317.865469 224.64 
L 320.909105 224.64 
L 320.909105 224.64 
L 317.865469 224.64 
z
" style="fill:#1f77b4;"/>
   </g>
   <g id="patch_87">
    <path clip-path="url(#p0fd520097e)" d="M 320.909105 224.64 
L 323.952741 224.64 
L 323.952741 224.64 
L 320.909105 224.64 
z
" style="fill:#1f77b4;"/>
   </g>
   <g id="patch_88">
    <path clip-path="url(#p0fd520097e)" d="M 323.952741 224.64 
L 326.996378 224.64 
L 326.996378 224.64 
L 323.952741 224.64 
z
" style="fill:#1f77b4;"/>
   </g>
   <g id="patch_89">
    <path clip-path="url(#p0fd520097e)" d="M 326.996378 224.64 
L 330.040014 224.64 
L 330.040014 224.64 
L 326.996378 224.64 
z
" style="fill:#1f77b4;"/>
   </g>
   <g id="patch_90">
    <path clip-path="url(#p0fd520097e)" d="M 330.040014 224.64 
L 333.083651 224.64 
L 333.083651 224.64 
L 330.040014 224.64 
z
" style="fill:#1f77b4;"/>
   </g>
   <g id="patch_91">
    <path clip-path="url(#p0fd520097e)" d="M 333.083651 224.64 
L 336.127287 224.64 
L 336.127287 224.64 
L 333.083651 224.64 
z
" style="fill:#1f77b4;"/>
   </g>
   <g id="patch_92">
    <path clip-path="url(#p0fd520097e)" d="M 336.127287 224.64 
L 339.170923 224.64 
L 339.170923 224.64 
L 336.127287 224.64 
z
" style="fill:#1f77b4;"/>
   </g>
   <g id="patch_93">
    <path clip-path="url(#p0fd520097e)" d="M 339.170923 224.64 
L 342.21456 224.64 
L 342.21456 224.64 
L 339.170923 224.64 
z
" style="fill:#1f77b4;"/>
   </g>
   <g id="patch_94">
    <path clip-path="url(#p0fd520097e)" d="M 342.21456 224.64 
L 345.258196 224.64 
L 345.258196 224.64 
L 342.21456 224.64 
z
" style="fill:#1f77b4;"/>
   </g>
   <g id="patch_95">
    <path clip-path="url(#p0fd520097e)" d="M 345.258196 224.64 
L 348.301832 224.64 
L 348.301832 224.64 
L 345.258196 224.64 
z
" style="fill:#1f77b4;"/>
   </g>
   <g id="patch_96">
    <path clip-path="url(#p0fd520097e)" d="M 348.301832 224.64 
L 351.345469 224.64 
L 351.345469 224.64 
L 348.301832 224.64 
z
" style="fill:#1f77b4;"/>
   </g>
   <g id="patch_97">
    <path clip-path="url(#p0fd520097e)" d="M 351.345469 224.64 
L 354.389105 224.64 
L 354.389105 224.64 
L 351.345469 224.64 
z
" style="fill:#1f77b4;"/>
   </g>
   <g id="patch_98">
    <path clip-path="url(#p0fd520097e)" d="M 354.389105 224.64 
L 357.432741 224.64 
L 357.432741 224.002813 
L 354.389105 224.002813 
z
" style="fill:#1f77b4;"/>
   </g>
   <g id="patch_99">
    <path clip-path="url(#p0fd520097e)" d="M 357.432741 224.64 
L 360.476378 224.64 
L 360.476378 224.64 
L 357.432741 224.64 
z
" style="fill:#1f77b4;"/>
   </g>
   <g id="patch_100">
    <path clip-path="url(#p0fd520097e)" d="M 360.476378 224.64 
L 363.520014 224.64 
L 363.520014 224.64 
L 360.476378 224.64 
z
" style="fill:#1f77b4;"/>
   </g>
   <g id="patch_101">
    <path clip-path="url(#p0fd520097e)" d="M 363.520014 224.64 
L 366.563651 224.64 
L 366.563651 224.64 
L 363.520014 224.64 
z
" style="fill:#1f77b4;"/>
   </g>
   <g id="patch_102">
    <path clip-path="url(#p0fd520097e)" d="M 366.563651 224.64 
L 369.607287 224.64 
L 369.607287 224.002813 
L 366.563651 224.002813 
z
" style="fill:#1f77b4;"/>
   </g>
   <g id="matplotlib.axis_1">
    <g id="xtick_1">
     <g id="line2d_1">
      <defs>
       <path d="M 0 0 
L 0 6 
" id="me197411f2a" style="stroke:#000000;stroke-width:1.25;"/>
      </defs>
      <g>
       <use style="stroke:#000000;stroke-width:1.25;" x="65.198792" xlink:href="#me197411f2a" y="224.64"/>
      </g>
     </g>
     <g id="text_1">
      <text style="font-family:Arial;font-size:11px;font-style:normal;font-weight:normal;text-anchor:middle;" transform="rotate(-0, 65.198792, 242.013594)" x="65.198792" y="242.013594">0</text>
     </g>
    </g>
    <g id="xtick_2">
     <g id="line2d_2">
      <g>
       <use style="stroke:#000000;stroke-width:1.25;" x="110.057103" xlink:href="#me197411f2a" y="224.64"/>
      </g>
     </g>
     <g id="text_2">
      <text style="font-family:Arial;font-size:11px;font-style:normal;font-weight:normal;text-anchor:middle;" transform="rotate(-0, 110.057103, 242.013594)" x="110.057103" y="242.013594">1000</text>
     </g>
    </g>
    <g id="xtick_3">
     <g id="line2d_3">
      <g>
       <use style="stroke:#000000;stroke-width:1.25;" x="154.915413" xlink:href="#me197411f2a" y="224.64"/>
      </g>
     </g>
     <g id="text_3">
      <text style="font-family:Arial;font-size:11px;font-style:normal;font-weight:normal;text-anchor:middle;" transform="rotate(-0, 154.915413, 242.013594)" x="154.915413" y="242.013594">2000</text>
     </g>
    </g>
    <g id="xtick_4">
     <g id="line2d_4">
      <g>
       <use style="stroke:#000000;stroke-width:1.25;" x="199.773724" xlink:href="#me197411f2a" y="224.64"/>
      </g>
     </g>
     <g id="text_4">
      <text style="font-family:Arial;font-size:11px;font-style:normal;font-weight:normal;text-anchor:middle;" transform="rotate(-0, 199.773724, 242.013594)" x="199.773724" y="242.013594">3000</text>
     </g>
    </g>
    <g id="xtick_5">
     <g id="line2d_5">
      <g>
       <use style="stroke:#000000;stroke-width:1.25;" x="244.632034" xlink:href="#me197411f2a" y="224.64"/>
      </g>
     </g>
     <g id="text_5">
      <text style="font-family:Arial;font-size:11px;font-style:normal;font-weight:normal;text-anchor:middle;" transform="rotate(-0, 244.632034, 242.013594)" x="244.632034" y="242.013594">4000</text>
     </g>
    </g>
    <g id="xtick_6">
     <g id="line2d_6">
      <g>
       <use style="stroke:#000000;stroke-width:1.25;" x="289.490344" xlink:href="#me197411f2a" y="224.64"/>
      </g>
     </g>
     <g id="text_6">
      <text style="font-family:Arial;font-size:11px;font-style:normal;font-weight:normal;text-anchor:middle;" transform="rotate(-0, 289.490344, 242.013594)" x="289.490344" y="242.013594">5000</text>
     </g>
    </g>
    <g id="xtick_7">
     <g id="line2d_7">
      <g>
       <use style="stroke:#000000;stroke-width:1.25;" x="334.348655" xlink:href="#me197411f2a" y="224.64"/>
      </g>
     </g>
     <g id="text_7">
      <text style="font-family:Arial;font-size:11px;font-style:normal;font-weight:normal;text-anchor:middle;" transform="rotate(-0, 334.348655, 242.013594)" x="334.348655" y="242.013594">6000</text>
     </g>
    </g>
    <g id="xtick_8">
     <g id="line2d_8">
      <g>
       <use style="stroke:#000000;stroke-width:1.25;" x="379.206965" xlink:href="#me197411f2a" y="224.64"/>
      </g>
     </g>
     <g id="text_8">
      <text style="font-family:Arial;font-size:11px;font-style:normal;font-weight:normal;text-anchor:middle;" transform="rotate(-0, 379.206965, 242.013594)" x="379.206965" y="242.013594">7000</text>
     </g>
    </g>
    <g id="text_9">
     <text style="font-family:Arial;font-size:12px;font-style:normal;font-weight:normal;text-anchor:middle;" transform="rotate(-0, 217.425469, 256.935469)" x="217.425469" y="256.935469">Number of ratings per contributor</text>
    </g>
   </g>
   <g id="matplotlib.axis_2">
    <g id="ytick_1">
     <g id="line2d_9">
      <defs>
       <path d="M 0 0 
L -6 0 
" id="m21717e9c3d" style="stroke:#000000;stroke-width:1.25;"/>
      </defs>
      <g>
       <use style="stroke:#000000;stroke-width:1.25;" x="50.025469" xlink:href="#m21717e9c3d" y="224.64"/>
      </g>
     </g>
     <g id="text_10">
      <text style="font-family:Arial;font-size:11px;font-style:normal;font-weight:normal;text-anchor:end;" transform="rotate(-0, 40.525469, 228.576797)" x="40.525469" y="228.576797">0</text>
     </g>
    </g>
    <g id="ytick_2">
     <g id="line2d_10">
      <g>
       <use style="stroke:#000000;stroke-width:1.25;" x="50.025469" xlink:href="#m21717e9c3d" y="192.780659"/>
      </g>
     </g>
     <g id="text_11">
      <text style="font-family:Arial;font-size:11px;font-style:normal;font-weight:normal;text-anchor:end;" transform="rotate(-0, 40.525469, 196.717456)" x="40.525469" y="196.717456">50</text>
     </g>
    </g>
    <g id="ytick_3">
     <g id="line2d_11">
      <g>
       <use style="stroke:#000000;stroke-width:1.25;" x="50.025469" xlink:href="#m21717e9c3d" y="160.921319"/>
      </g>
     </g>
     <g id="text_12">
      <text style="font-family:Arial;font-size:11px;font-style:normal;font-weight:normal;text-anchor:end;" transform="rotate(-0, 40.525469, 164.858116)" x="40.525469" y="164.858116">100</text>
     </g>
    </g>
    <g id="ytick_4">
     <g id="line2d_12">
      <g>
       <use style="stroke:#000000;stroke-width:1.25;" x="50.025469" xlink:href="#m21717e9c3d" y="129.061978"/>
      </g>
     </g>
     <g id="text_13">
      <text style="font-family:Arial;font-size:11px;font-style:normal;font-weight:normal;text-anchor:end;" transform="rotate(-0, 40.525469, 132.998775)" x="40.525469" y="132.998775">150</text>
     </g>
    </g>
    <g id="ytick_5">
     <g id="line2d_13">
      <g>
       <use style="stroke:#000000;stroke-width:1.25;" x="50.025469" xlink:href="#m21717e9c3d" y="97.202637"/>
      </g>
     </g>
     <g id="text_14">
      <text style="font-family:Arial;font-size:11px;font-style:normal;font-weight:normal;text-anchor:end;" transform="rotate(-0, 40.525469, 101.139434)" x="40.525469" y="101.139434">200</text>
     </g>
    </g>
    <g id="ytick_6">
     <g id="line2d_14">
      <g>
       <use style="stroke:#000000;stroke-width:1.25;" x="50.025469" xlink:href="#m21717e9c3d" y="65.343297"/>
      </g>
     </g>
     <g id="text_15">
      <text style="font-family:Arial;font-size:11px;font-style:normal;font-weight:normal;text-anchor:end;" transform="rotate(-0, 40.525469, 69.280094)" x="40.525469" y="69.280094">250</text>
     </g>
    </g>
    <g id="ytick_7">
     <g id="line2d_15">
      <g>
       <use style="stroke:#000000;stroke-width:1.25;" x="50.025469" xlink:href="#m21717e9c3d" y="33.483956"/>
      </g>
     </g>
     <g id="text_16">
      <text style="font-family:Arial;font-size:11px;font-style:normal;font-weight:normal;text-anchor:end;" transform="rotate(-0, 40.525469, 37.420753)" x="40.525469" y="37.420753">300</text>
     </g>
    </g>
    <g id="text_17">
     <text style="font-family:Arial;font-size:12px;font-style:normal;font-weight:normal;text-anchor:middle;" transform="rotate(-90, 15.789375, 115.92)" x="15.789375" y="115.92">Number of contributors</text>
    </g>
   </g>
   <g id="patch_103">
    <path d="M 50.025469 224.64 
L 50.025469 7.2 
" style="fill:none;stroke:#000000;stroke-linecap:square;stroke-linejoin:miter;stroke-width:1.25;"/>
   </g>
   <g id="patch_104">
    <path d="M 384.825469 224.64 
L 384.825469 7.2 
" style="fill:none;stroke:#000000;stroke-linecap:square;stroke-linejoin:miter;stroke-width:1.25;"/>
   </g>
   <g id="patch_105">
    <path d="M 50.025469 224.64 
L 384.825469 224.64 
" style="fill:none;stroke:#000000;stroke-linecap:square;stroke-linejoin:miter;stroke-width:1.25;"/>
   </g>
   <g id="patch_106">
    <path d="M 50.025469 7.2 
L 384.825469 7.2 
" style="fill:none;stroke:#000000;stroke-linecap:square;stroke-linejoin:miter;stroke-width:1.25;"/>
   </g>
  </g>
 </g>
 <defs>
  <clipPath id="p0fd520097e">
   <rect height="217.44" width="334.8" x="50.025469" y="7.2"/>
  </clipPath>
 </defs>
</svg>
