<?xml version="1.0" encoding="utf-8" standalone="no"?>
<!DOCTYPE svg PUBLIC "-//W3C//DTD SVG 1.1//EN"
  "http://www.w3.org/Graphics/SVG/1.1/DTD/svg11.dtd">
<!-- Created with matplotlib (https://matplotlib.org/) -->
<svg height="270.367031pt" version="1.1" viewBox="0 0 406.031028 270.367031" width="406.031028pt" xmlns="http://www.w3.org/2000/svg" xmlns:xlink="http://www.w3.org/1999/xlink">
 <defs>
  <style type="text/css">
*{stroke-linecap:butt;stroke-linejoin:round;}
  </style>
 </defs>
 <g id="figure_1">
  <g id="patch_1">
   <path d="M 0 270.367031 
L 406.031028 270.367031 
L 406.031028 0 
L 0 0 
z
" style="fill:none;"/>
  </g>
  <g id="axes_1">
   <g id="patch_2">
    <path d="M 55.191094 224.64 
L 389.991094 224.64 
L 389.991094 7.2 
L 55.191094 7.2 
z
" style="fill:none;"/>
   </g>
   <g id="patch_3">
    <path clip-path="url(#p2bdeae6b41)" d="M 70.409276 224.64 
L 73.452912 224.64 
L 73.452912 17.554286 
L 70.409276 17.554286 
z
" style="fill:#1f77b4;"/>
   </g>
   <g id="patch_4">
    <path clip-path="url(#p2bdeae6b41)" d="M 73.452912 224.64 
L 76.496548 224.64 
L 76.496548 215.719385 
L 73.452912 215.719385 
z
" style="fill:#1f77b4;"/>
   </g>
   <g id="patch_5">
    <path clip-path="url(#p2bdeae6b41)" d="M 76.496548 224.64 
L 79.540185 224.64 
L 79.540185 220.179692 
L 76.496548 220.179692 
z
" style="fill:#1f77b4;"/>
   </g>
   <g id="patch_6">
    <path clip-path="url(#p2bdeae6b41)" d="M 79.540185 224.64 
L 82.583821 224.64 
L 82.583821 221.454066 
L 79.540185 221.454066 
z
" style="fill:#1f77b4;"/>
   </g>
   <g id="patch_7">
    <path clip-path="url(#p2bdeae6b41)" d="M 82.583821 224.64 
L 85.627457 224.64 
L 85.627457 220.816879 
L 82.583821 220.816879 
z
" style="fill:#1f77b4;"/>
   </g>
   <g id="patch_8">
    <path clip-path="url(#p2bdeae6b41)" d="M 85.627457 224.64 
L 88.671094 224.64 
L 88.671094 223.365626 
L 85.627457 223.365626 
z
" style="fill:#1f77b4;"/>
   </g>
   <g id="patch_9">
    <path clip-path="url(#p2bdeae6b41)" d="M 88.671094 224.64 
L 91.71473 224.64 
L 91.71473 224.002813 
L 88.671094 224.002813 
z
" style="fill:#1f77b4;"/>
   </g>
   <g id="patch_10">
    <path clip-path="url(#p2bdeae6b41)" d="M 91.71473 224.64 
L 94.758366 224.64 
L 94.758366 223.365626 
L 91.71473 223.365626 
z
" style="fill:#1f77b4;"/>
   </g>
   <g id="patch_11">
    <path clip-path="url(#p2bdeae6b41)" d="M 94.758366 224.64 
L 97.802003 224.64 
L 97.802003 224.64 
L 94.758366 224.64 
z
" style="fill:#1f77b4;"/>
   </g>
   <g id="patch_12">
    <path clip-path="url(#p2bdeae6b41)" d="M 97.802003 224.64 
L 100.845639 224.64 
L 100.845639 224.64 
L 97.802003 224.64 
z
" style="fill:#1f77b4;"/>
   </g>
   <g id="patch_13">
    <path clip-path="url(#p2bdeae6b41)" d="M 100.845639 224.64 
L 103.889276 224.64 
L 103.889276 222.72844 
L 100.845639 222.72844 
z
" style="fill:#1f77b4;"/>
   </g>
   <g id="patch_14">
    <path clip-path="url(#p2bdeae6b41)" d="M 103.889276 224.64 
L 106.932912 224.64 
L 106.932912 224.002813 
L 103.889276 224.002813 
z
" style="fill:#1f77b4;"/>
   </g>
   <g id="patch_15">
    <path clip-path="url(#p2bdeae6b41)" d="M 106.932912 224.64 
L 109.976548 224.64 
L 109.976548 223.365626 
L 106.932912 223.365626 
z
" style="fill:#1f77b4;"/>
   </g>
   <g id="patch_16">
    <path clip-path="url(#p2bdeae6b41)" d="M 109.976548 224.64 
L 113.020185 224.64 
L 113.020185 224.64 
L 109.976548 224.64 
z
" style="fill:#1f77b4;"/>
   </g>
   <g id="patch_17">
    <path clip-path="url(#p2bdeae6b41)" d="M 113.020185 224.64 
L 116.063821 224.64 
L 116.063821 224.64 
L 113.020185 224.64 
z
" style="fill:#1f77b4;"/>
   </g>
   <g id="patch_18">
    <path clip-path="url(#p2bdeae6b41)" d="M 116.063821 224.64 
L 119.107457 224.64 
L 119.107457 224.002813 
L 116.063821 224.002813 
z
" style="fill:#1f77b4;"/>
   </g>
   <g id="patch_19">
    <path clip-path="url(#p2bdeae6b41)" d="M 119.107457 224.64 
L 122.151094 224.64 
L 122.151094 224.002813 
L 119.107457 224.002813 
z
" style="fill:#1f77b4;"/>
   </g>
   <g id="patch_20">
    <path clip-path="url(#p2bdeae6b41)" d="M 122.151094 224.64 
L 125.19473 224.64 
L 125.19473 224.64 
L 122.151094 224.64 
z
" style="fill:#1f77b4;"/>
   </g>
   <g id="patch_21">
    <path clip-path="url(#p2bdeae6b41)" d="M 125.19473 224.64 
L 128.238366 224.64 
L 128.238366 224.64 
L 125.19473 224.64 
z
" style="fill:#1f77b4;"/>
   </g>
   <g id="patch_22">
    <path clip-path="url(#p2bdeae6b41)" d="M 128.238366 224.64 
L 131.282003 224.64 
L 131.282003 224.002813 
L 128.238366 224.002813 
z
" style="fill:#1f77b4;"/>
   </g>
   <g id="patch_23">
    <path clip-path="url(#p2bdeae6b41)" d="M 131.282003 224.64 
L 134.325639 224.64 
L 134.325639 224.64 
L 131.282003 224.64 
z
" style="fill:#1f77b4;"/>
   </g>
   <g id="patch_24">
    <path clip-path="url(#p2bdeae6b41)" d="M 134.325639 224.64 
L 137.369276 224.64 
L 137.369276 224.64 
L 134.325639 224.64 
z
" style="fill:#1f77b4;"/>
   </g>
   <g id="patch_25">
    <path clip-path="url(#p2bdeae6b41)" d="M 137.369276 224.64 
L 140.412912 224.64 
L 140.412912 224.64 
L 137.369276 224.64 
z
" style="fill:#1f77b4;"/>
   </g>
   <g id="patch_26">
    <path clip-path="url(#p2bdeae6b41)" d="M 140.412912 224.64 
L 143.456548 224.64 
L 143.456548 224.002813 
L 140.412912 224.002813 
z
" style="fill:#1f77b4;"/>
   </g>
   <g id="patch_27">
    <path clip-path="url(#p2bdeae6b41)" d="M 143.456548 224.64 
L 146.500185 224.64 
L 146.500185 223.365626 
L 143.456548 223.365626 
z
" style="fill:#1f77b4;"/>
   </g>
   <g id="patch_28">
    <path clip-path="url(#p2bdeae6b41)" d="M 146.500185 224.64 
L 149.543821 224.64 
L 149.543821 224.64 
L 146.500185 224.64 
z
" style="fill:#1f77b4;"/>
   </g>
   <g id="patch_29">
    <path clip-path="url(#p2bdeae6b41)" d="M 149.543821 224.64 
L 152.587457 224.64 
L 152.587457 222.72844 
L 149.543821 222.72844 
z
" style="fill:#1f77b4;"/>
   </g>
   <g id="patch_30">
    <path clip-path="url(#p2bdeae6b41)" d="M 152.587457 224.64 
L 155.631094 224.64 
L 155.631094 224.64 
L 152.587457 224.64 
z
" style="fill:#1f77b4;"/>
   </g>
   <g id="patch_31">
    <path clip-path="url(#p2bdeae6b41)" d="M 155.631094 224.64 
L 158.67473 224.64 
L 158.67473 224.64 
L 155.631094 224.64 
z
" style="fill:#1f77b4;"/>
   </g>
   <g id="patch_32">
    <path clip-path="url(#p2bdeae6b41)" d="M 158.67473 224.64 
L 161.718366 224.64 
L 161.718366 224.64 
L 158.67473 224.64 
z
" style="fill:#1f77b4;"/>
   </g>
   <g id="patch_33">
    <path clip-path="url(#p2bdeae6b41)" d="M 161.718366 224.64 
L 164.762003 224.64 
L 164.762003 224.002813 
L 161.718366 224.002813 
z
" style="fill:#1f77b4;"/>
   </g>
   <g id="patch_34">
    <path clip-path="url(#p2bdeae6b41)" d="M 164.762003 224.64 
L 167.805639 224.64 
L 167.805639 224.64 
L 164.762003 224.64 
z
" style="fill:#1f77b4;"/>
   </g>
   <g id="patch_35">
    <path clip-path="url(#p2bdeae6b41)" d="M 167.805639 224.64 
L 170.849276 224.64 
L 170.849276 224.64 
L 167.805639 224.64 
z
" style="fill:#1f77b4;"/>
   </g>
   <g id="patch_36">
    <path clip-path="url(#p2bdeae6b41)" d="M 170.849276 224.64 
L 173.892912 224.64 
L 173.892912 224.64 
L 170.849276 224.64 
z
" style="fill:#1f77b4;"/>
   </g>
   <g id="patch_37">
    <path clip-path="url(#p2bdeae6b41)" d="M 173.892912 224.64 
L 176.936548 224.64 
L 176.936548 224.64 
L 173.892912 224.64 
z
" style="fill:#1f77b4;"/>
   </g>
   <g id="patch_38">
    <path clip-path="url(#p2bdeae6b41)" d="M 176.936548 224.64 
L 179.980185 224.64 
L 179.980185 224.64 
L 176.936548 224.64 
z
" style="fill:#1f77b4;"/>
   </g>
   <g id="patch_39">
    <path clip-path="url(#p2bdeae6b41)" d="M 179.980185 224.64 
L 183.023821 224.64 
L 183.023821 224.64 
L 179.980185 224.64 
z
" style="fill:#1f77b4;"/>
   </g>
   <g id="patch_40">
    <path clip-path="url(#p2bdeae6b41)" d="M 183.023821 224.64 
L 186.067457 224.64 
L 186.067457 224.64 
L 183.023821 224.64 
z
" style="fill:#1f77b4;"/>
   </g>
   <g id="patch_41">
    <path clip-path="url(#p2bdeae6b41)" d="M 186.067457 224.64 
L 189.111094 224.64 
L 189.111094 224.64 
L 186.067457 224.64 
z
" style="fill:#1f77b4;"/>
   </g>
   <g id="patch_42">
    <path clip-path="url(#p2bdeae6b41)" d="M 189.111094 224.64 
L 192.15473 224.64 
L 192.15473 224.64 
L 189.111094 224.64 
z
" style="fill:#1f77b4;"/>
   </g>
   <g id="patch_43">
    <path clip-path="url(#p2bdeae6b41)" d="M 192.15473 224.64 
L 195.198366 224.64 
L 195.198366 224.002813 
L 192.15473 224.002813 
z
" style="fill:#1f77b4;"/>
   </g>
   <g id="patch_44">
    <path clip-path="url(#p2bdeae6b41)" d="M 195.198366 224.64 
L 198.242003 224.64 
L 198.242003 224.64 
L 195.198366 224.64 
z
" style="fill:#1f77b4;"/>
   </g>
   <g id="patch_45">
    <path clip-path="url(#p2bdeae6b41)" d="M 198.242003 224.64 
L 201.285639 224.64 
L 201.285639 224.64 
L 198.242003 224.64 
z
" style="fill:#1f77b4;"/>
   </g>
   <g id="patch_46">
    <path clip-path="url(#p2bdeae6b41)" d="M 201.285639 224.64 
L 204.329276 224.64 
L 204.329276 224.64 
L 201.285639 224.64 
z
" style="fill:#1f77b4;"/>
   </g>
   <g id="patch_47">
    <path clip-path="url(#p2bdeae6b41)" d="M 204.329276 224.64 
L 207.372912 224.64 
L 207.372912 224.64 
L 204.329276 224.64 
z
" style="fill:#1f77b4;"/>
   </g>
   <g id="patch_48">
    <path clip-path="url(#p2bdeae6b41)" d="M 207.372912 224.64 
L 210.416548 224.64 
L 210.416548 224.64 
L 207.372912 224.64 
z
" style="fill:#1f77b4;"/>
   </g>
   <g id="patch_49">
    <path clip-path="url(#p2bdeae6b41)" d="M 210.416548 224.64 
L 213.460185 224.64 
L 213.460185 224.64 
L 210.416548 224.64 
z
" style="fill:#1f77b4;"/>
   </g>
   <g id="patch_50">
    <path clip-path="url(#p2bdeae6b41)" d="M 213.460185 224.64 
L 216.503821 224.64 
L 216.503821 223.365626 
L 213.460185 223.365626 
z
" style="fill:#1f77b4;"/>
   </g>
   <g id="patch_51">
    <path clip-path="url(#p2bdeae6b41)" d="M 216.503821 224.64 
L 219.547457 224.64 
L 219.547457 224.64 
L 216.503821 224.64 
z
" style="fill:#1f77b4;"/>
   </g>
   <g id="patch_52">
    <path clip-path="url(#p2bdeae6b41)" d="M 219.547457 224.64 
L 222.591094 224.64 
L 222.591094 224.64 
L 219.547457 224.64 
z
" style="fill:#1f77b4;"/>
   </g>
   <g id="patch_53">
    <path clip-path="url(#p2bdeae6b41)" d="M 222.591094 224.64 
L 225.63473 224.64 
L 225.63473 224.64 
L 222.591094 224.64 
z
" style="fill:#1f77b4;"/>
   </g>
   <g id="patch_54">
    <path clip-path="url(#p2bdeae6b41)" d="M 225.63473 224.64 
L 228.678366 224.64 
L 228.678366 224.002813 
L 225.63473 224.002813 
z
" style="fill:#1f77b4;"/>
   </g>
   <g id="patch_55">
    <path clip-path="url(#p2bdeae6b41)" d="M 228.678366 224.64 
L 231.722003 224.64 
L 231.722003 224.64 
L 228.678366 224.64 
z
" style="fill:#1f77b4;"/>
   </g>
   <g id="patch_56">
    <path clip-path="url(#p2bdeae6b41)" d="M 231.722003 224.64 
L 234.765639 224.64 
L 234.765639 224.002813 
L 231.722003 224.002813 
z
" style="fill:#1f77b4;"/>
   </g>
   <g id="patch_57">
    <path clip-path="url(#p2bdeae6b41)" d="M 234.765639 224.64 
L 237.809276 224.64 
L 237.809276 224.64 
L 234.765639 224.64 
z
" style="fill:#1f77b4;"/>
   </g>
   <g id="patch_58">
    <path clip-path="url(#p2bdeae6b41)" d="M 237.809276 224.64 
L 240.852912 224.64 
L 240.852912 224.64 
L 237.809276 224.64 
z
" style="fill:#1f77b4;"/>
   </g>
   <g id="patch_59">
    <path clip-path="url(#p2bdeae6b41)" d="M 240.852912 224.64 
L 243.896548 224.64 
L 243.896548 224.64 
L 240.852912 224.64 
z
" style="fill:#1f77b4;"/>
   </g>
   <g id="patch_60">
    <path clip-path="url(#p2bdeae6b41)" d="M 243.896548 224.64 
L 246.940185 224.64 
L 246.940185 224.64 
L 243.896548 224.64 
z
" style="fill:#1f77b4;"/>
   </g>
   <g id="patch_61">
    <path clip-path="url(#p2bdeae6b41)" d="M 246.940185 224.64 
L 249.983821 224.64 
L 249.983821 224.64 
L 246.940185 224.64 
z
" style="fill:#1f77b4;"/>
   </g>
   <g id="patch_62">
    <path clip-path="url(#p2bdeae6b41)" d="M 249.983821 224.64 
L 253.027457 224.64 
L 253.027457 224.64 
L 249.983821 224.64 
z
" style="fill:#1f77b4;"/>
   </g>
   <g id="patch_63">
    <path clip-path="url(#p2bdeae6b41)" d="M 253.027457 224.64 
L 256.071094 224.64 
L 256.071094 224.64 
L 253.027457 224.64 
z
" style="fill:#1f77b4;"/>
   </g>
   <g id="patch_64">
    <path clip-path="url(#p2bdeae6b41)" d="M 256.071094 224.64 
L 259.11473 224.64 
L 259.11473 224.64 
L 256.071094 224.64 
z
" style="fill:#1f77b4;"/>
   </g>
   <g id="patch_65">
    <path clip-path="url(#p2bdeae6b41)" d="M 259.11473 224.64 
L 262.158366 224.64 
L 262.158366 224.64 
L 259.11473 224.64 
z
" style="fill:#1f77b4;"/>
   </g>
   <g id="patch_66">
    <path clip-path="url(#p2bdeae6b41)" d="M 262.158366 224.64 
L 265.202003 224.64 
L 265.202003 224.64 
L 262.158366 224.64 
z
" style="fill:#1f77b4;"/>
   </g>
   <g id="patch_67">
    <path clip-path="url(#p2bdeae6b41)" d="M 265.202003 224.64 
L 268.245639 224.64 
L 268.245639 224.64 
L 265.202003 224.64 
z
" style="fill:#1f77b4;"/>
   </g>
   <g id="patch_68">
    <path clip-path="url(#p2bdeae6b41)" d="M 268.245639 224.64 
L 271.289276 224.64 
L 271.289276 224.64 
L 268.245639 224.64 
z
" style="fill:#1f77b4;"/>
   </g>
   <g id="patch_69">
    <path clip-path="url(#p2bdeae6b41)" d="M 271.289276 224.64 
L 274.332912 224.64 
L 274.332912 224.64 
L 271.289276 224.64 
z
" style="fill:#1f77b4;"/>
   </g>
   <g id="patch_70">
    <path clip-path="url(#p2bdeae6b41)" d="M 274.332912 224.64 
L 277.376548 224.64 
L 277.376548 224.64 
L 274.332912 224.64 
z
" style="fill:#1f77b4;"/>
   </g>
   <g id="patch_71">
    <path clip-path="url(#p2bdeae6b41)" d="M 277.376548 224.64 
L 280.420185 224.64 
L 280.420185 224.64 
L 277.376548 224.64 
z
" style="fill:#1f77b4;"/>
   </g>
   <g id="patch_72">
    <path clip-path="url(#p2bdeae6b41)" d="M 280.420185 224.64 
L 283.463821 224.64 
L 283.463821 224.64 
L 280.420185 224.64 
z
" style="fill:#1f77b4;"/>
   </g>
   <g id="patch_73">
    <path clip-path="url(#p2bdeae6b41)" d="M 283.463821 224.64 
L 286.507457 224.64 
L 286.507457 224.64 
L 283.463821 224.64 
z
" style="fill:#1f77b4;"/>
   </g>
   <g id="patch_74">
    <path clip-path="url(#p2bdeae6b41)" d="M 286.507457 224.64 
L 289.551094 224.64 
L 289.551094 224.002813 
L 286.507457 224.002813 
z
" style="fill:#1f77b4;"/>
   </g>
   <g id="patch_75">
    <path clip-path="url(#p2bdeae6b41)" d="M 289.551094 224.64 
L 292.59473 224.64 
L 292.59473 224.64 
L 289.551094 224.64 
z
" style="fill:#1f77b4;"/>
   </g>
   <g id="patch_76">
    <path clip-path="url(#p2bdeae6b41)" d="M 292.59473 224.64 
L 295.638366 224.64 
L 295.638366 224.64 
L 292.59473 224.64 
z
" style="fill:#1f77b4;"/>
   </g>
   <g id="patch_77">
    <path clip-path="url(#p2bdeae6b41)" d="M 295.638366 224.64 
L 298.682003 224.64 
L 298.682003 224.64 
L 295.638366 224.64 
z
" style="fill:#1f77b4;"/>
   </g>
   <g id="patch_78">
    <path clip-path="url(#p2bdeae6b41)" d="M 298.682003 224.64 
L 301.725639 224.64 
L 301.725639 224.002813 
L 298.682003 224.002813 
z
" style="fill:#1f77b4;"/>
   </g>
   <g id="patch_79">
    <path clip-path="url(#p2bdeae6b41)" d="M 301.725639 224.64 
L 304.769276 224.64 
L 304.769276 224.64 
L 301.725639 224.64 
z
" style="fill:#1f77b4;"/>
   </g>
   <g id="patch_80">
    <path clip-path="url(#p2bdeae6b41)" d="M 304.769276 224.64 
L 307.812912 224.64 
L 307.812912 224.64 
L 304.769276 224.64 
z
" style="fill:#1f77b4;"/>
   </g>
   <g id="patch_81">
    <path clip-path="url(#p2bdeae6b41)" d="M 307.812912 224.64 
L 310.856548 224.64 
L 310.856548 224.64 
L 307.812912 224.64 
z
" style="fill:#1f77b4;"/>
   </g>
   <g id="patch_82">
    <path clip-path="url(#p2bdeae6b41)" d="M 310.856548 224.64 
L 313.900185 224.64 
L 313.900185 224.64 
L 310.856548 224.64 
z
" style="fill:#1f77b4;"/>
   </g>
   <g id="patch_83">
    <path clip-path="url(#p2bdeae6b41)" d="M 313.900185 224.64 
L 316.943821 224.64 
L 316.943821 224.64 
L 313.900185 224.64 
z
" style="fill:#1f77b4;"/>
   </g>
   <g id="patch_84">
    <path clip-path="url(#p2bdeae6b41)" d="M 316.943821 224.64 
L 319.987457 224.64 
L 319.987457 224.64 
L 316.943821 224.64 
z
" style="fill:#1f77b4;"/>
   </g>
   <g id="patch_85">
    <path clip-path="url(#p2bdeae6b41)" d="M 319.987457 224.64 
L 323.031094 224.64 
L 323.031094 224.64 
L 319.987457 224.64 
z
" style="fill:#1f77b4;"/>
   </g>
   <g id="patch_86">
    <path clip-path="url(#p2bdeae6b41)" d="M 323.031094 224.64 
L 326.07473 224.64 
L 326.07473 224.64 
L 323.031094 224.64 
z
" style="fill:#1f77b4;"/>
   </g>
   <g id="patch_87">
    <path clip-path="url(#p2bdeae6b41)" d="M 326.07473 224.64 
L 329.118366 224.64 
L 329.118366 224.64 
L 326.07473 224.64 
z
" style="fill:#1f77b4;"/>
   </g>
   <g id="patch_88">
    <path clip-path="url(#p2bdeae6b41)" d="M 329.118366 224.64 
L 332.162003 224.64 
L 332.162003 224.64 
L 329.118366 224.64 
z
" style="fill:#1f77b4;"/>
   </g>
   <g id="patch_89">
    <path clip-path="url(#p2bdeae6b41)" d="M 332.162003 224.64 
L 335.205639 224.64 
L 335.205639 224.64 
L 332.162003 224.64 
z
" style="fill:#1f77b4;"/>
   </g>
   <g id="patch_90">
    <path clip-path="url(#p2bdeae6b41)" d="M 335.205639 224.64 
L 338.249276 224.64 
L 338.249276 224.64 
L 335.205639 224.64 
z
" style="fill:#1f77b4;"/>
   </g>
   <g id="patch_91">
    <path clip-path="url(#p2bdeae6b41)" d="M 338.249276 224.64 
L 341.292912 224.64 
L 341.292912 224.64 
L 338.249276 224.64 
z
" style="fill:#1f77b4;"/>
   </g>
   <g id="patch_92">
    <path clip-path="url(#p2bdeae6b41)" d="M 341.292912 224.64 
L 344.336548 224.64 
L 344.336548 224.64 
L 341.292912 224.64 
z
" style="fill:#1f77b4;"/>
   </g>
   <g id="patch_93">
    <path clip-path="url(#p2bdeae6b41)" d="M 344.336548 224.64 
L 347.380185 224.64 
L 347.380185 224.64 
L 344.336548 224.64 
z
" style="fill:#1f77b4;"/>
   </g>
   <g id="patch_94">
    <path clip-path="url(#p2bdeae6b41)" d="M 347.380185 224.64 
L 350.423821 224.64 
L 350.423821 224.64 
L 347.380185 224.64 
z
" style="fill:#1f77b4;"/>
   </g>
   <g id="patch_95">
    <path clip-path="url(#p2bdeae6b41)" d="M 350.423821 224.64 
L 353.467457 224.64 
L 353.467457 224.64 
L 350.423821 224.64 
z
" style="fill:#1f77b4;"/>
   </g>
   <g id="patch_96">
    <path clip-path="url(#p2bdeae6b41)" d="M 353.467457 224.64 
L 356.511094 224.64 
L 356.511094 224.64 
L 353.467457 224.64 
z
" style="fill:#1f77b4;"/>
   </g>
   <g id="patch_97">
    <path clip-path="url(#p2bdeae6b41)" d="M 356.511094 224.64 
L 359.55473 224.64 
L 359.55473 224.64 
L 356.511094 224.64 
z
" style="fill:#1f77b4;"/>
   </g>
   <g id="patch_98">
    <path clip-path="url(#p2bdeae6b41)" d="M 359.55473 224.64 
L 362.598366 224.64 
L 362.598366 224.002813 
L 359.55473 224.002813 
z
" style="fill:#1f77b4;"/>
   </g>
   <g id="patch_99">
    <path clip-path="url(#p2bdeae6b41)" d="M 362.598366 224.64 
L 365.642003 224.64 
L 365.642003 224.64 
L 362.598366 224.64 
z
" style="fill:#1f77b4;"/>
   </g>
   <g id="patch_100">
    <path clip-path="url(#p2bdeae6b41)" d="M 365.642003 224.64 
L 368.685639 224.64 
L 368.685639 224.64 
L 365.642003 224.64 
z
" style="fill:#1f77b4;"/>
   </g>
   <g id="patch_101">
    <path clip-path="url(#p2bdeae6b41)" d="M 368.685639 224.64 
L 371.729276 224.64 
L 371.729276 224.64 
L 368.685639 224.64 
z
" style="fill:#1f77b4;"/>
   </g>
   <g id="patch_102">
    <path clip-path="url(#p2bdeae6b41)" d="M 371.729276 224.64 
L 374.772912 224.64 
L 374.772912 224.002813 
L 371.729276 224.002813 
z
" style="fill:#1f77b4;"/>
   </g>
   <g id="matplotlib.axis_1">
    <g id="xtick_1">
     <g id="line2d_1">
      <defs>
       <path d="M 0 0 
L 0 6 
" id="m91f66eea30" style="stroke:#000000;stroke-width:1.25;"/>
      </defs>
      <g>
       <use style="stroke:#000000;stroke-width:1.25;" x="70.364417" xlink:href="#m91f66eea30" y="224.64"/>
      </g>
     </g>
     <g id="text_1">
      <text style="font-family:Arial;font-size:13px;font-style:normal;font-weight:normal;text-anchor:middle;" transform="rotate(-0, 70.364417, 243.445156)" x="70.364417" y="243.445156">0</text>
     </g>
    </g>
    <g id="xtick_2">
     <g id="line2d_2">
      <g>
       <use style="stroke:#000000;stroke-width:1.25;" x="115.222728" xlink:href="#m91f66eea30" y="224.64"/>
      </g>
     </g>
     <g id="text_2">
      <text style="font-family:Arial;font-size:13px;font-style:normal;font-weight:normal;text-anchor:middle;" transform="rotate(-0, 115.222728, 243.445156)" x="115.222728" y="243.445156">1000</text>
     </g>
    </g>
    <g id="xtick_3">
     <g id="line2d_3">
      <g>
       <use style="stroke:#000000;stroke-width:1.25;" x="160.081038" xlink:href="#m91f66eea30" y="224.64"/>
      </g>
     </g>
     <g id="text_3">
      <text style="font-family:Arial;font-size:13px;font-style:normal;font-weight:normal;text-anchor:middle;" transform="rotate(-0, 160.081038, 243.445156)" x="160.081038" y="243.445156">2000</text>
     </g>
    </g>
    <g id="xtick_4">
     <g id="line2d_4">
      <g>
       <use style="stroke:#000000;stroke-width:1.25;" x="204.939349" xlink:href="#m91f66eea30" y="224.64"/>
      </g>
     </g>
     <g id="text_4">
      <text style="font-family:Arial;font-size:13px;font-style:normal;font-weight:normal;text-anchor:middle;" transform="rotate(-0, 204.939349, 243.445156)" x="204.939349" y="243.445156">3000</text>
     </g>
    </g>
    <g id="xtick_5">
     <g id="line2d_5">
      <g>
       <use style="stroke:#000000;stroke-width:1.25;" x="249.797659" xlink:href="#m91f66eea30" y="224.64"/>
      </g>
     </g>
     <g id="text_5">
      <text style="font-family:Arial;font-size:13px;font-style:normal;font-weight:normal;text-anchor:middle;" transform="rotate(-0, 249.797659, 243.445156)" x="249.797659" y="243.445156">4000</text>
     </g>
    </g>
    <g id="xtick_6">
     <g id="line2d_6">
      <g>
       <use style="stroke:#000000;stroke-width:1.25;" x="294.655969" xlink:href="#m91f66eea30" y="224.64"/>
      </g>
     </g>
     <g id="text_6">
      <text style="font-family:Arial;font-size:13px;font-style:normal;font-weight:normal;text-anchor:middle;" transform="rotate(-0, 294.655969, 243.445156)" x="294.655969" y="243.445156">5000</text>
     </g>
    </g>
    <g id="xtick_7">
     <g id="line2d_7">
      <g>
       <use style="stroke:#000000;stroke-width:1.25;" x="339.51428" xlink:href="#m91f66eea30" y="224.64"/>
      </g>
     </g>
     <g id="text_7">
      <text style="font-family:Arial;font-size:13px;font-style:normal;font-weight:normal;text-anchor:middle;" transform="rotate(-0, 339.51428, 243.445156)" x="339.51428" y="243.445156">6000</text>
     </g>
    </g>
    <g id="xtick_8">
     <g id="line2d_8">
      <g>
       <use style="stroke:#000000;stroke-width:1.25;" x="384.37259" xlink:href="#m91f66eea30" y="224.64"/>
      </g>
     </g>
     <g id="text_8">
      <text style="font-family:Arial;font-size:13px;font-style:normal;font-weight:normal;text-anchor:middle;" transform="rotate(-0, 384.37259, 243.445156)" x="384.37259" y="243.445156">7000</text>
     </g>
    </g>
    <g id="text_9">
     <text style="font-family:Arial;font-size:14px;font-style:normal;font-weight:normal;text-anchor:middle;" transform="rotate(-0, 222.591094, 260.220469)" x="222.591094" y="260.220469">Number of ratings per contributor</text>
    </g>
   </g>
   <g id="matplotlib.axis_2">
    <g id="ytick_1">
     <g id="line2d_9">
      <defs>
       <path d="M 0 0 
L -6 0 
" id="m41b6ed1baa" style="stroke:#000000;stroke-width:1.25;"/>
      </defs>
      <g>
       <use style="stroke:#000000;stroke-width:1.25;" x="55.191094" xlink:href="#m41b6ed1baa" y="224.64"/>
      </g>
     </g>
     <g id="text_10">
      <text style="font-family:Arial;font-size:13px;font-style:normal;font-weight:normal;text-anchor:end;" transform="rotate(-0, 45.691094, 229.292578)" x="45.691094" y="229.292578">0</text>
     </g>
    </g>
    <g id="ytick_2">
     <g id="line2d_10">
      <g>
       <use style="stroke:#000000;stroke-width:1.25;" x="55.191094" xlink:href="#m41b6ed1baa" y="192.780659"/>
      </g>
     </g>
     <g id="text_11">
      <text style="font-family:Arial;font-size:13px;font-style:normal;font-weight:normal;text-anchor:end;" transform="rotate(-0, 45.691094, 197.433237)" x="45.691094" y="197.433237">50</text>
     </g>
    </g>
    <g id="ytick_3">
     <g id="line2d_11">
      <g>
       <use style="stroke:#000000;stroke-width:1.25;" x="55.191094" xlink:href="#m41b6ed1baa" y="160.921319"/>
      </g>
     </g>
     <g id="text_12">
      <text style="font-family:Arial;font-size:13px;font-style:normal;font-weight:normal;text-anchor:end;" transform="rotate(-0, 45.691094, 165.573897)" x="45.691094" y="165.573897">100</text>
     </g>
    </g>
    <g id="ytick_4">
     <g id="line2d_12">
      <g>
       <use style="stroke:#000000;stroke-width:1.25;" x="55.191094" xlink:href="#m41b6ed1baa" y="129.061978"/>
      </g>
     </g>
     <g id="text_13">
      <text style="font-family:Arial;font-size:13px;font-style:normal;font-weight:normal;text-anchor:end;" transform="rotate(-0, 45.691094, 133.714556)" x="45.691094" y="133.714556">150</text>
     </g>
    </g>
    <g id="ytick_5">
     <g id="line2d_13">
      <g>
       <use style="stroke:#000000;stroke-width:1.25;" x="55.191094" xlink:href="#m41b6ed1baa" y="97.202637"/>
      </g>
     </g>
     <g id="text_14">
      <text style="font-family:Arial;font-size:13px;font-style:normal;font-weight:normal;text-anchor:end;" transform="rotate(-0, 45.691094, 101.855215)" x="45.691094" y="101.855215">200</text>
     </g>
    </g>
    <g id="ytick_6">
     <g id="line2d_14">
      <g>
       <use style="stroke:#000000;stroke-width:1.25;" x="55.191094" xlink:href="#m41b6ed1baa" y="65.343297"/>
      </g>
     </g>
     <g id="text_15">
      <text style="font-family:Arial;font-size:13px;font-style:normal;font-weight:normal;text-anchor:end;" transform="rotate(-0, 45.691094, 69.995875)" x="45.691094" y="69.995875">250</text>
     </g>
    </g>
    <g id="ytick_7">
     <g id="line2d_15">
      <g>
       <use style="stroke:#000000;stroke-width:1.25;" x="55.191094" xlink:href="#m41b6ed1baa" y="33.483956"/>
      </g>
     </g>
     <g id="text_16">
      <text style="font-family:Arial;font-size:13px;font-style:normal;font-weight:normal;text-anchor:end;" transform="rotate(-0, 45.691094, 38.136534)" x="45.691094" y="38.136534">300</text>
     </g>
    </g>
    <g id="text_17">
     <text style="font-family:Arial;font-size:14px;font-style:normal;font-weight:normal;text-anchor:middle;" transform="rotate(-90, 17.220938, 115.92)" x="17.220938" y="115.92">Number of contributors</text>
    </g>
   </g>
   <g id="patch_103">
    <path d="M 55.191094 224.64 
L 55.191094 7.2 
" style="fill:none;stroke:#000000;stroke-linecap:square;stroke-linejoin:miter;stroke-width:1.25;"/>
   </g>
   <g id="patch_104">
    <path d="M 389.991094 224.64 
L 389.991094 7.2 
" style="fill:none;stroke:#000000;stroke-linecap:square;stroke-linejoin:miter;stroke-width:1.25;"/>
   </g>
   <g id="patch_105">
    <path d="M 55.191094 224.64 
L 389.991094 224.64 
" style="fill:none;stroke:#000000;stroke-linecap:square;stroke-linejoin:miter;stroke-width:1.25;"/>
   </g>
   <g id="patch_106">
    <path d="M 55.191094 7.2 
L 389.991094 7.2 
" style="fill:none;stroke:#000000;stroke-linecap:square;stroke-linejoin:miter;stroke-width:1.25;"/>
   </g>
  </g>
 </g>
 <defs>
  <clipPath id="p2bdeae6b41">
   <rect height="217.44" width="334.8" x="55.191094" y="7.2"/>
  </clipPath>
 </defs>
</svg>
