<?xml version="1.0" encoding="utf-8" standalone="no"?>
<!DOCTYPE svg PUBLIC "-//W3C//DTD SVG 1.1//EN"
  "http://www.w3.org/Graphics/SVG/1.1/DTD/svg11.dtd">
<!-- Created with matplotlib (https://matplotlib.org/) -->
<svg height="270.367031pt" version="1.1" viewBox="0 0 404.753372 270.367031" width="404.753372pt" xmlns="http://www.w3.org/2000/svg" xmlns:xlink="http://www.w3.org/1999/xlink">
 <defs>
  <style type="text/css">
*{stroke-linecap:butt;stroke-linejoin:round;}
  </style>
 </defs>
 <g id="figure_1">
  <g id="patch_1">
   <path d="M 0 270.367031 
L 404.753372 270.367031 
L 404.753372 0 
L 0 0 
z
" style="fill:none;"/>
  </g>
  <g id="axes_1">
   <g id="patch_2">
    <path d="M 53.913438 224.64 
L 388.713437 224.64 
L 388.713437 7.2 
L 53.913438 7.2 
z
" style="fill:none;"/>
   </g>
   <g id="patch_3">
    <path clip-path="url(#p893be78008)" d="M 69.131619 78909.782711 
L 72.175256 78909.782711 
L 72.175256 17.083636 
L 69.131619 17.083636 
z
" style="fill:#1f77b4;"/>
   </g>
   <g id="patch_4">
    <path clip-path="url(#p893be78008)" d="M 72.175256 78909.782711 
L 75.218892 78909.782711 
L 75.218892 124.561788 
L 72.175256 124.561788 
z
" style="fill:#1f77b4;"/>
   </g>
   <g id="patch_5">
    <path clip-path="url(#p893be78008)" d="M 75.218892 78909.782711 
L 78.262528 78909.782711 
L 78.262528 148.251351 
L 75.218892 148.251351 
z
" style="fill:#1f77b4;"/>
   </g>
   <g id="patch_6">
    <path clip-path="url(#p893be78008)" d="M 78.262528 78909.782711 
L 81.306165 78909.782711 
L 81.306165 159.750901 
L 78.262528 159.750901 
z
" style="fill:#1f77b4;"/>
   </g>
   <g id="patch_7">
    <path clip-path="url(#p893be78008)" d="M 81.306165 78909.782711 
L 84.349801 78909.782711 
L 84.349801 153.51973 
L 81.306165 153.51973 
z
" style="fill:#1f77b4;"/>
   </g>
   <g id="patch_8">
    <path clip-path="url(#p893be78008)" d="M 84.349801 78909.782711 
L 87.393438 78909.782711 
L 87.393438 191.0668 
L 84.349801 191.0668 
z
" style="fill:#1f77b4;"/>
   </g>
   <g id="patch_9">
    <path clip-path="url(#p893be78008)" d="M 87.393438 78909.782711 
L 90.437074 78909.782711 
L 90.437074 214.756364 
L 87.393438 214.756364 
z
" style="fill:#1f77b4;"/>
   </g>
   <g id="patch_10">
    <path clip-path="url(#p893be78008)" d="M 90.437074 78909.782711 
L 93.48071 78909.782711 
L 93.48071 191.0668 
L 90.437074 191.0668 
z
" style="fill:#1f77b4;"/>
   </g>
   <g id="patch_11">
    <path clip-path="url(#p893be78008)" d="M 93.48071 78909.782711 
L 96.524347 78909.782711 
L 96.524347 78909.782711 
L 93.48071 78909.782711 
z
" style="fill:#1f77b4;"/>
   </g>
   <g id="patch_12">
    <path clip-path="url(#p893be78008)" d="M 96.524347 78909.782711 
L 99.567983 78909.782711 
L 99.567983 78909.782711 
L 96.524347 78909.782711 
z
" style="fill:#1f77b4;"/>
   </g>
   <g id="patch_13">
    <path clip-path="url(#p893be78008)" d="M 99.567983 78909.782711 
L 102.611619 78909.782711 
L 102.611619 177.209294 
L 99.567983 177.209294 
z
" style="fill:#1f77b4;"/>
   </g>
   <g id="patch_14">
    <path clip-path="url(#p893be78008)" d="M 102.611619 78909.782711 
L 105.655256 78909.782711 
L 105.655256 214.756364 
L 102.611619 214.756364 
z
" style="fill:#1f77b4;"/>
   </g>
   <g id="patch_15">
    <path clip-path="url(#p893be78008)" d="M 105.655256 78909.782711 
L 108.698892 78909.782711 
L 108.698892 191.0668 
L 105.655256 191.0668 
z
" style="fill:#1f77b4;"/>
   </g>
   <g id="patch_16">
    <path clip-path="url(#p893be78008)" d="M 108.698892 78909.782711 
L 111.742528 78909.782711 
L 111.742528 78909.782711 
L 108.698892 78909.782711 
z
" style="fill:#1f77b4;"/>
   </g>
   <g id="patch_17">
    <path clip-path="url(#p893be78008)" d="M 111.742528 78909.782711 
L 114.786165 78909.782711 
L 114.786165 78909.782711 
L 111.742528 78909.782711 
z
" style="fill:#1f77b4;"/>
   </g>
   <g id="patch_18">
    <path clip-path="url(#p893be78008)" d="M 114.786165 78909.782711 
L 117.829801 78909.782711 
L 117.829801 214.756364 
L 114.786165 214.756364 
z
" style="fill:#1f77b4;"/>
   </g>
   <g id="patch_19">
    <path clip-path="url(#p893be78008)" d="M 117.829801 78909.782711 
L 120.873437 78909.782711 
L 120.873437 214.756364 
L 117.829801 214.756364 
z
" style="fill:#1f77b4;"/>
   </g>
   <g id="patch_20">
    <path clip-path="url(#p893be78008)" d="M 120.873437 78909.782711 
L 123.917074 78909.782711 
L 123.917074 78909.782711 
L 120.873437 78909.782711 
z
" style="fill:#1f77b4;"/>
   </g>
   <g id="patch_21">
    <path clip-path="url(#p893be78008)" d="M 123.917074 78909.782711 
L 126.96071 78909.782711 
L 126.96071 78909.782711 
L 123.917074 78909.782711 
z
" style="fill:#1f77b4;"/>
   </g>
   <g id="patch_22">
    <path clip-path="url(#p893be78008)" d="M 126.96071 78909.782711 
L 130.004347 78909.782711 
L 130.004347 214.756364 
L 126.96071 214.756364 
z
" style="fill:#1f77b4;"/>
   </g>
   <g id="patch_23">
    <path clip-path="url(#p893be78008)" d="M 130.004347 78909.782711 
L 133.047983 78909.782711 
L 133.047983 78909.782711 
L 130.004347 78909.782711 
z
" style="fill:#1f77b4;"/>
   </g>
   <g id="patch_24">
    <path clip-path="url(#p893be78008)" d="M 133.047983 78909.782711 
L 136.091619 78909.782711 
L 136.091619 78909.782711 
L 133.047983 78909.782711 
z
" style="fill:#1f77b4;"/>
   </g>
   <g id="patch_25">
    <path clip-path="url(#p893be78008)" d="M 136.091619 78909.782711 
L 139.135256 78909.782711 
L 139.135256 78909.782711 
L 136.091619 78909.782711 
z
" style="fill:#1f77b4;"/>
   </g>
   <g id="patch_26">
    <path clip-path="url(#p893be78008)" d="M 139.135256 78909.782711 
L 142.178892 78909.782711 
L 142.178892 214.756364 
L 139.135256 214.756364 
z
" style="fill:#1f77b4;"/>
   </g>
   <g id="patch_27">
    <path clip-path="url(#p893be78008)" d="M 142.178892 78909.782711 
L 145.222528 78909.782711 
L 145.222528 191.0668 
L 142.178892 191.0668 
z
" style="fill:#1f77b4;"/>
   </g>
   <g id="patch_28">
    <path clip-path="url(#p893be78008)" d="M 145.222528 78909.782711 
L 148.266165 78909.782711 
L 148.266165 78909.782711 
L 145.222528 78909.782711 
z
" style="fill:#1f77b4;"/>
   </g>
   <g id="patch_29">
    <path clip-path="url(#p893be78008)" d="M 148.266165 78909.782711 
L 151.309801 78909.782711 
L 151.309801 177.209294 
L 148.266165 177.209294 
z
" style="fill:#1f77b4;"/>
   </g>
   <g id="patch_30">
    <path clip-path="url(#p893be78008)" d="M 151.309801 78909.782711 
L 154.353437 78909.782711 
L 154.353437 78909.782711 
L 151.309801 78909.782711 
z
" style="fill:#1f77b4;"/>
   </g>
   <g id="patch_31">
    <path clip-path="url(#p893be78008)" d="M 154.353437 78909.782711 
L 157.397074 78909.782711 
L 157.397074 78909.782711 
L 154.353437 78909.782711 
z
" style="fill:#1f77b4;"/>
   </g>
   <g id="patch_32">
    <path clip-path="url(#p893be78008)" d="M 157.397074 78909.782711 
L 160.44071 78909.782711 
L 160.44071 78909.782711 
L 157.397074 78909.782711 
z
" style="fill:#1f77b4;"/>
   </g>
   <g id="patch_33">
    <path clip-path="url(#p893be78008)" d="M 160.44071 78909.782711 
L 163.484347 78909.782711 
L 163.484347 214.756364 
L 160.44071 214.756364 
z
" style="fill:#1f77b4;"/>
   </g>
   <g id="patch_34">
    <path clip-path="url(#p893be78008)" d="M 163.484347 78909.782711 
L 166.527983 78909.782711 
L 166.527983 78909.782711 
L 163.484347 78909.782711 
z
" style="fill:#1f77b4;"/>
   </g>
   <g id="patch_35">
    <path clip-path="url(#p893be78008)" d="M 166.527983 78909.782711 
L 169.571619 78909.782711 
L 169.571619 78909.782711 
L 166.527983 78909.782711 
z
" style="fill:#1f77b4;"/>
   </g>
   <g id="patch_36">
    <path clip-path="url(#p893be78008)" d="M 169.571619 78909.782711 
L 172.615256 78909.782711 
L 172.615256 78909.782711 
L 169.571619 78909.782711 
z
" style="fill:#1f77b4;"/>
   </g>
   <g id="patch_37">
    <path clip-path="url(#p893be78008)" d="M 172.615256 78909.782711 
L 175.658892 78909.782711 
L 175.658892 78909.782711 
L 172.615256 78909.782711 
z
" style="fill:#1f77b4;"/>
   </g>
   <g id="patch_38">
    <path clip-path="url(#p893be78008)" d="M 175.658892 78909.782711 
L 178.702528 78909.782711 
L 178.702528 78909.782711 
L 175.658892 78909.782711 
z
" style="fill:#1f77b4;"/>
   </g>
   <g id="patch_39">
    <path clip-path="url(#p893be78008)" d="M 178.702528 78909.782711 
L 181.746165 78909.782711 
L 181.746165 78909.782711 
L 178.702528 78909.782711 
z
" style="fill:#1f77b4;"/>
   </g>
   <g id="patch_40">
    <path clip-path="url(#p893be78008)" d="M 181.746165 78909.782711 
L 184.789801 78909.782711 
L 184.789801 78909.782711 
L 181.746165 78909.782711 
z
" style="fill:#1f77b4;"/>
   </g>
   <g id="patch_41">
    <path clip-path="url(#p893be78008)" d="M 184.789801 78909.782711 
L 187.833437 78909.782711 
L 187.833437 78909.782711 
L 184.789801 78909.782711 
z
" style="fill:#1f77b4;"/>
   </g>
   <g id="patch_42">
    <path clip-path="url(#p893be78008)" d="M 187.833437 78909.782711 
L 190.877074 78909.782711 
L 190.877074 78909.782711 
L 187.833437 78909.782711 
z
" style="fill:#1f77b4;"/>
   </g>
   <g id="patch_43">
    <path clip-path="url(#p893be78008)" d="M 190.877074 78909.782711 
L 193.92071 78909.782711 
L 193.92071 214.756364 
L 190.877074 214.756364 
z
" style="fill:#1f77b4;"/>
   </g>
   <g id="patch_44">
    <path clip-path="url(#p893be78008)" d="M 193.92071 78909.782711 
L 196.964347 78909.782711 
L 196.964347 78909.782711 
L 193.92071 78909.782711 
z
" style="fill:#1f77b4;"/>
   </g>
   <g id="patch_45">
    <path clip-path="url(#p893be78008)" d="M 196.964347 78909.782711 
L 200.007983 78909.782711 
L 200.007983 78909.782711 
L 196.964347 78909.782711 
z
" style="fill:#1f77b4;"/>
   </g>
   <g id="patch_46">
    <path clip-path="url(#p893be78008)" d="M 200.007983 78909.782711 
L 203.051619 78909.782711 
L 203.051619 78909.782711 
L 200.007983 78909.782711 
z
" style="fill:#1f77b4;"/>
   </g>
   <g id="patch_47">
    <path clip-path="url(#p893be78008)" d="M 203.051619 78909.782711 
L 206.095256 78909.782711 
L 206.095256 78909.782711 
L 203.051619 78909.782711 
z
" style="fill:#1f77b4;"/>
   </g>
   <g id="patch_48">
    <path clip-path="url(#p893be78008)" d="M 206.095256 78909.782711 
L 209.138892 78909.782711 
L 209.138892 78909.782711 
L 206.095256 78909.782711 
z
" style="fill:#1f77b4;"/>
   </g>
   <g id="patch_49">
    <path clip-path="url(#p893be78008)" d="M 209.138892 78909.782711 
L 212.182528 78909.782711 
L 212.182528 78909.782711 
L 209.138892 78909.782711 
z
" style="fill:#1f77b4;"/>
   </g>
   <g id="patch_50">
    <path clip-path="url(#p893be78008)" d="M 212.182528 78909.782711 
L 215.226165 78909.782711 
L 215.226165 191.0668 
L 212.182528 191.0668 
z
" style="fill:#1f77b4;"/>
   </g>
   <g id="patch_51">
    <path clip-path="url(#p893be78008)" d="M 215.226165 78909.782711 
L 218.269801 78909.782711 
L 218.269801 78909.782711 
L 215.226165 78909.782711 
z
" style="fill:#1f77b4;"/>
   </g>
   <g id="patch_52">
    <path clip-path="url(#p893be78008)" d="M 218.269801 78909.782711 
L 221.313437 78909.782711 
L 221.313437 78909.782711 
L 218.269801 78909.782711 
z
" style="fill:#1f77b4;"/>
   </g>
   <g id="patch_53">
    <path clip-path="url(#p893be78008)" d="M 221.313437 78909.782711 
L 224.357074 78909.782711 
L 224.357074 78909.782711 
L 221.313437 78909.782711 
z
" style="fill:#1f77b4;"/>
   </g>
   <g id="patch_54">
    <path clip-path="url(#p893be78008)" d="M 224.357074 78909.782711 
L 227.40071 78909.782711 
L 227.40071 214.756364 
L 224.357074 214.756364 
z
" style="fill:#1f77b4;"/>
   </g>
   <g id="patch_55">
    <path clip-path="url(#p893be78008)" d="M 227.40071 78909.782711 
L 230.444347 78909.782711 
L 230.444347 78909.782711 
L 227.40071 78909.782711 
z
" style="fill:#1f77b4;"/>
   </g>
   <g id="patch_56">
    <path clip-path="url(#p893be78008)" d="M 230.444347 78909.782711 
L 233.487983 78909.782711 
L 233.487983 214.756364 
L 230.444347 214.756364 
z
" style="fill:#1f77b4;"/>
   </g>
   <g id="patch_57">
    <path clip-path="url(#p893be78008)" d="M 233.487983 78909.782711 
L 236.531619 78909.782711 
L 236.531619 78909.782711 
L 233.487983 78909.782711 
z
" style="fill:#1f77b4;"/>
   </g>
   <g id="patch_58">
    <path clip-path="url(#p893be78008)" d="M 236.531619 78909.782711 
L 239.575256 78909.782711 
L 239.575256 78909.782711 
L 236.531619 78909.782711 
z
" style="fill:#1f77b4;"/>
   </g>
   <g id="patch_59">
    <path clip-path="url(#p893be78008)" d="M 239.575256 78909.782711 
L 242.618892 78909.782711 
L 242.618892 78909.782711 
L 239.575256 78909.782711 
z
" style="fill:#1f77b4;"/>
   </g>
   <g id="patch_60">
    <path clip-path="url(#p893be78008)" d="M 242.618892 78909.782711 
L 245.662528 78909.782711 
L 245.662528 78909.782711 
L 242.618892 78909.782711 
z
" style="fill:#1f77b4;"/>
   </g>
   <g id="patch_61">
    <path clip-path="url(#p893be78008)" d="M 245.662528 78909.782711 
L 248.706165 78909.782711 
L 248.706165 78909.782711 
L 245.662528 78909.782711 
z
" style="fill:#1f77b4;"/>
   </g>
   <g id="patch_62">
    <path clip-path="url(#p893be78008)" d="M 248.706165 78909.782711 
L 251.749801 78909.782711 
L 251.749801 78909.782711 
L 248.706165 78909.782711 
z
" style="fill:#1f77b4;"/>
   </g>
   <g id="patch_63">
    <path clip-path="url(#p893be78008)" d="M 251.749801 78909.782711 
L 254.793437 78909.782711 
L 254.793437 78909.782711 
L 251.749801 78909.782711 
z
" style="fill:#1f77b4;"/>
   </g>
   <g id="patch_64">
    <path clip-path="url(#p893be78008)" d="M 254.793437 78909.782711 
L 257.837074 78909.782711 
L 257.837074 78909.782711 
L 254.793437 78909.782711 
z
" style="fill:#1f77b4;"/>
   </g>
   <g id="patch_65">
    <path clip-path="url(#p893be78008)" d="M 257.837074 78909.782711 
L 260.88071 78909.782711 
L 260.88071 78909.782711 
L 257.837074 78909.782711 
z
" style="fill:#1f77b4;"/>
   </g>
   <g id="patch_66">
    <path clip-path="url(#p893be78008)" d="M 260.88071 78909.782711 
L 263.924347 78909.782711 
L 263.924347 78909.782711 
L 260.88071 78909.782711 
z
" style="fill:#1f77b4;"/>
   </g>
   <g id="patch_67">
    <path clip-path="url(#p893be78008)" d="M 263.924347 78909.782711 
L 266.967983 78909.782711 
L 266.967983 78909.782711 
L 263.924347 78909.782711 
z
" style="fill:#1f77b4;"/>
   </g>
   <g id="patch_68">
    <path clip-path="url(#p893be78008)" d="M 266.967983 78909.782711 
L 270.011619 78909.782711 
L 270.011619 78909.782711 
L 266.967983 78909.782711 
z
" style="fill:#1f77b4;"/>
   </g>
   <g id="patch_69">
    <path clip-path="url(#p893be78008)" d="M 270.011619 78909.782711 
L 273.055256 78909.782711 
L 273.055256 78909.782711 
L 270.011619 78909.782711 
z
" style="fill:#1f77b4;"/>
   </g>
   <g id="patch_70">
    <path clip-path="url(#p893be78008)" d="M 273.055256 78909.782711 
L 276.098892 78909.782711 
L 276.098892 78909.782711 
L 273.055256 78909.782711 
z
" style="fill:#1f77b4;"/>
   </g>
   <g id="patch_71">
    <path clip-path="url(#p893be78008)" d="M 276.098892 78909.782711 
L 279.142528 78909.782711 
L 279.142528 78909.782711 
L 276.098892 78909.782711 
z
" style="fill:#1f77b4;"/>
   </g>
   <g id="patch_72">
    <path clip-path="url(#p893be78008)" d="M 279.142528 78909.782711 
L 282.186165 78909.782711 
L 282.186165 78909.782711 
L 279.142528 78909.782711 
z
" style="fill:#1f77b4;"/>
   </g>
   <g id="patch_73">
    <path clip-path="url(#p893be78008)" d="M 282.186165 78909.782711 
L 285.229801 78909.782711 
L 285.229801 78909.782711 
L 282.186165 78909.782711 
z
" style="fill:#1f77b4;"/>
   </g>
   <g id="patch_74">
    <path clip-path="url(#p893be78008)" d="M 285.229801 78909.782711 
L 288.273438 78909.782711 
L 288.273438 214.756364 
L 285.229801 214.756364 
z
" style="fill:#1f77b4;"/>
   </g>
   <g id="patch_75">
    <path clip-path="url(#p893be78008)" d="M 288.273438 78909.782711 
L 291.317074 78909.782711 
L 291.317074 78909.782711 
L 288.273438 78909.782711 
z
" style="fill:#1f77b4;"/>
   </g>
   <g id="patch_76">
    <path clip-path="url(#p893be78008)" d="M 291.317074 78909.782711 
L 294.36071 78909.782711 
L 294.36071 78909.782711 
L 291.317074 78909.782711 
z
" style="fill:#1f77b4;"/>
   </g>
   <g id="patch_77">
    <path clip-path="url(#p893be78008)" d="M 294.36071 78909.782711 
L 297.404347 78909.782711 
L 297.404347 78909.782711 
L 294.36071 78909.782711 
z
" style="fill:#1f77b4;"/>
   </g>
   <g id="patch_78">
    <path clip-path="url(#p893be78008)" d="M 297.404347 78909.782711 
L 300.447983 78909.782711 
L 300.447983 214.756364 
L 297.404347 214.756364 
z
" style="fill:#1f77b4;"/>
   </g>
   <g id="patch_79">
    <path clip-path="url(#p893be78008)" d="M 300.447983 78909.782711 
L 303.491619 78909.782711 
L 303.491619 78909.782711 
L 300.447983 78909.782711 
z
" style="fill:#1f77b4;"/>
   </g>
   <g id="patch_80">
    <path clip-path="url(#p893be78008)" d="M 303.491619 78909.782711 
L 306.535256 78909.782711 
L 306.535256 78909.782711 
L 303.491619 78909.782711 
z
" style="fill:#1f77b4;"/>
   </g>
   <g id="patch_81">
    <path clip-path="url(#p893be78008)" d="M 306.535256 78909.782711 
L 309.578892 78909.782711 
L 309.578892 78909.782711 
L 306.535256 78909.782711 
z
" style="fill:#1f77b4;"/>
   </g>
   <g id="patch_82">
    <path clip-path="url(#p893be78008)" d="M 309.578892 78909.782711 
L 312.622528 78909.782711 
L 312.622528 78909.782711 
L 309.578892 78909.782711 
z
" style="fill:#1f77b4;"/>
   </g>
   <g id="patch_83">
    <path clip-path="url(#p893be78008)" d="M 312.622528 78909.782711 
L 315.666165 78909.782711 
L 315.666165 78909.782711 
L 312.622528 78909.782711 
z
" style="fill:#1f77b4;"/>
   </g>
   <g id="patch_84">
    <path clip-path="url(#p893be78008)" d="M 315.666165 78909.782711 
L 318.709801 78909.782711 
L 318.709801 78909.782711 
L 315.666165 78909.782711 
z
" style="fill:#1f77b4;"/>
   </g>
   <g id="patch_85">
    <path clip-path="url(#p893be78008)" d="M 318.709801 78909.782711 
L 321.753438 78909.782711 
L 321.753438 78909.782711 
L 318.709801 78909.782711 
z
" style="fill:#1f77b4;"/>
   </g>
   <g id="patch_86">
    <path clip-path="url(#p893be78008)" d="M 321.753437 78909.782711 
L 324.797074 78909.782711 
L 324.797074 78909.782711 
L 321.753437 78909.782711 
z
" style="fill:#1f77b4;"/>
   </g>
   <g id="patch_87">
    <path clip-path="url(#p893be78008)" d="M 324.797074 78909.782711 
L 327.84071 78909.782711 
L 327.84071 78909.782711 
L 324.797074 78909.782711 
z
" style="fill:#1f77b4;"/>
   </g>
   <g id="patch_88">
    <path clip-path="url(#p893be78008)" d="M 327.84071 78909.782711 
L 330.884347 78909.782711 
L 330.884347 78909.782711 
L 327.84071 78909.782711 
z
" style="fill:#1f77b4;"/>
   </g>
   <g id="patch_89">
    <path clip-path="url(#p893be78008)" d="M 330.884347 78909.782711 
L 333.927983 78909.782711 
L 333.927983 78909.782711 
L 330.884347 78909.782711 
z
" style="fill:#1f77b4;"/>
   </g>
   <g id="patch_90">
    <path clip-path="url(#p893be78008)" d="M 333.927983 78909.782711 
L 336.971619 78909.782711 
L 336.971619 78909.782711 
L 333.927983 78909.782711 
z
" style="fill:#1f77b4;"/>
   </g>
   <g id="patch_91">
    <path clip-path="url(#p893be78008)" d="M 336.971619 78909.782711 
L 340.015256 78909.782711 
L 340.015256 78909.782711 
L 336.971619 78909.782711 
z
" style="fill:#1f77b4;"/>
   </g>
   <g id="patch_92">
    <path clip-path="url(#p893be78008)" d="M 340.015256 78909.782711 
L 343.058892 78909.782711 
L 343.058892 78909.782711 
L 340.015256 78909.782711 
z
" style="fill:#1f77b4;"/>
   </g>
   <g id="patch_93">
    <path clip-path="url(#p893be78008)" d="M 343.058892 78909.782711 
L 346.102528 78909.782711 
L 346.102528 78909.782711 
L 343.058892 78909.782711 
z
" style="fill:#1f77b4;"/>
   </g>
   <g id="patch_94">
    <path clip-path="url(#p893be78008)" d="M 346.102528 78909.782711 
L 349.146165 78909.782711 
L 349.146165 78909.782711 
L 346.102528 78909.782711 
z
" style="fill:#1f77b4;"/>
   </g>
   <g id="patch_95">
    <path clip-path="url(#p893be78008)" d="M 349.146165 78909.782711 
L 352.189801 78909.782711 
L 352.189801 78909.782711 
L 349.146165 78909.782711 
z
" style="fill:#1f77b4;"/>
   </g>
   <g id="patch_96">
    <path clip-path="url(#p893be78008)" d="M 352.189801 78909.782711 
L 355.233437 78909.782711 
L 355.233437 78909.782711 
L 352.189801 78909.782711 
z
" style="fill:#1f77b4;"/>
   </g>
   <g id="patch_97">
    <path clip-path="url(#p893be78008)" d="M 355.233437 78909.782711 
L 358.277074 78909.782711 
L 358.277074 78909.782711 
L 355.233437 78909.782711 
z
" style="fill:#1f77b4;"/>
   </g>
   <g id="patch_98">
    <path clip-path="url(#p893be78008)" d="M 358.277074 78909.782711 
L 361.32071 78909.782711 
L 361.32071 214.756364 
L 358.277074 214.756364 
z
" style="fill:#1f77b4;"/>
   </g>
   <g id="patch_99">
    <path clip-path="url(#p893be78008)" d="M 361.32071 78909.782711 
L 364.364347 78909.782711 
L 364.364347 78909.782711 
L 361.32071 78909.782711 
z
" style="fill:#1f77b4;"/>
   </g>
   <g id="patch_100">
    <path clip-path="url(#p893be78008)" d="M 364.364347 78909.782711 
L 367.407983 78909.782711 
L 367.407983 78909.782711 
L 364.364347 78909.782711 
z
" style="fill:#1f77b4;"/>
   </g>
   <g id="patch_101">
    <path clip-path="url(#p893be78008)" d="M 367.407983 78909.782711 
L 370.451619 78909.782711 
L 370.451619 78909.782711 
L 367.407983 78909.782711 
z
" style="fill:#1f77b4;"/>
   </g>
   <g id="patch_102">
    <path clip-path="url(#p893be78008)" d="M 370.451619 78909.782711 
L 373.495256 78909.782711 
L 373.495256 214.756364 
L 370.451619 214.756364 
z
" style="fill:#1f77b4;"/>
   </g>
   <g id="matplotlib.axis_1">
    <g id="xtick_1">
     <g id="line2d_1">
      <defs>
       <path d="M 0 0 
L 0 6 
" id="mdba255ef67" style="stroke:#000000;stroke-width:1.25;"/>
      </defs>
      <g>
       <use style="stroke:#000000;stroke-width:1.25;" x="69.086761" xlink:href="#mdba255ef67" y="224.64"/>
      </g>
     </g>
     <g id="text_1">
      <text style="font-family:Arial;font-size:13px;font-style:normal;font-weight:normal;text-anchor:middle;" transform="rotate(-0, 69.086761, 243.445156)" x="69.086761" y="243.445156">0</text>
     </g>
    </g>
    <g id="xtick_2">
     <g id="line2d_2">
      <g>
       <use style="stroke:#000000;stroke-width:1.25;" x="113.945071" xlink:href="#mdba255ef67" y="224.64"/>
      </g>
     </g>
     <g id="text_2">
      <text style="font-family:Arial;font-size:13px;font-style:normal;font-weight:normal;text-anchor:middle;" transform="rotate(-0, 113.945071, 243.445156)" x="113.945071" y="243.445156">1000</text>
     </g>
    </g>
    <g id="xtick_3">
     <g id="line2d_3">
      <g>
       <use style="stroke:#000000;stroke-width:1.25;" x="158.803382" xlink:href="#mdba255ef67" y="224.64"/>
      </g>
     </g>
     <g id="text_3">
      <text style="font-family:Arial;font-size:13px;font-style:normal;font-weight:normal;text-anchor:middle;" transform="rotate(-0, 158.803382, 243.445156)" x="158.803382" y="243.445156">2000</text>
     </g>
    </g>
    <g id="xtick_4">
     <g id="line2d_4">
      <g>
       <use style="stroke:#000000;stroke-width:1.25;" x="203.661692" xlink:href="#mdba255ef67" y="224.64"/>
      </g>
     </g>
     <g id="text_4">
      <text style="font-family:Arial;font-size:13px;font-style:normal;font-weight:normal;text-anchor:middle;" transform="rotate(-0, 203.661692, 243.445156)" x="203.661692" y="243.445156">3000</text>
     </g>
    </g>
    <g id="xtick_5">
     <g id="line2d_5">
      <g>
       <use style="stroke:#000000;stroke-width:1.25;" x="248.520003" xlink:href="#mdba255ef67" y="224.64"/>
      </g>
     </g>
     <g id="text_5">
      <text style="font-family:Arial;font-size:13px;font-style:normal;font-weight:normal;text-anchor:middle;" transform="rotate(-0, 248.520003, 243.445156)" x="248.520003" y="243.445156">4000</text>
     </g>
    </g>
    <g id="xtick_6">
     <g id="line2d_6">
      <g>
       <use style="stroke:#000000;stroke-width:1.25;" x="293.378313" xlink:href="#mdba255ef67" y="224.64"/>
      </g>
     </g>
     <g id="text_6">
      <text style="font-family:Arial;font-size:13px;font-style:normal;font-weight:normal;text-anchor:middle;" transform="rotate(-0, 293.378313, 243.445156)" x="293.378313" y="243.445156">5000</text>
     </g>
    </g>
    <g id="xtick_7">
     <g id="line2d_7">
      <g>
       <use style="stroke:#000000;stroke-width:1.25;" x="338.236624" xlink:href="#mdba255ef67" y="224.64"/>
      </g>
     </g>
     <g id="text_7">
      <text style="font-family:Arial;font-size:13px;font-style:normal;font-weight:normal;text-anchor:middle;" transform="rotate(-0, 338.236624, 243.445156)" x="338.236624" y="243.445156">6000</text>
     </g>
    </g>
    <g id="xtick_8">
     <g id="line2d_8">
      <g>
       <use style="stroke:#000000;stroke-width:1.25;" x="383.094934" xlink:href="#mdba255ef67" y="224.64"/>
      </g>
     </g>
     <g id="text_8">
      <text style="font-family:Arial;font-size:13px;font-style:normal;font-weight:normal;text-anchor:middle;" transform="rotate(-0, 383.094934, 243.445156)" x="383.094934" y="243.445156">7000</text>
     </g>
    </g>
    <g id="text_9">
     <text style="font-family:Arial;font-size:14px;font-style:normal;font-weight:normal;text-anchor:middle;" transform="rotate(-0, 221.313438, 260.220469)" x="221.313438" y="260.220469">Number of ratings per contributor</text>
    </g>
   </g>
   <g id="matplotlib.axis_2">
    <g id="ytick_1">
     <g id="line2d_9">
      <defs>
       <path d="M 0 0 
L -6 0 
" id="mce690efb54" style="stroke:#000000;stroke-width:1.25;"/>
      </defs>
      <g>
       <use style="stroke:#000000;stroke-width:1.25;" x="53.913438" xlink:href="#mce690efb54" y="214.756364"/>
      </g>
     </g>
     <g id="text_10">
      <!-- $\mathdefault{10^{0}}$ -->
      <g transform="translate(24.003438 221.459489)">
       <text>
        <tspan style="font-family:Arial;font-size:13px;font-style:regular;font-weight:regular;" x="0 7.22998" y="-0.39918750000000003">10</tspan>
        <tspan style="font-family:Arial;font-size:9.1px;font-style:regular;font-weight:regular;" x="14.686466" y="-9.459375">0</tspan>
       </text>
      </g>
     </g>
    </g>
    <g id="ytick_2">
     <g id="line2d_10">
      <g>
       <use style="stroke:#000000;stroke-width:1.25;" x="53.913438" xlink:href="#mce690efb54" y="136.061337"/>
      </g>
     </g>
     <g id="text_11">
      <!-- $\mathdefault{10^{1}}$ -->
      <g transform="translate(24.003438 142.764462)">
       <text>
        <tspan style="font-family:Arial;font-size:13px;font-style:regular;font-weight:regular;" x="0 7.22998" y="-0.39918750000000003">10</tspan>
        <tspan style="font-family:Arial;font-size:9.1px;font-style:regular;font-weight:regular;" x="14.686466" y="-9.459375">1</tspan>
       </text>
      </g>
     </g>
    </g>
    <g id="ytick_3">
     <g id="line2d_11">
      <g>
       <use style="stroke:#000000;stroke-width:1.25;" x="53.913438" xlink:href="#mce690efb54" y="57.366311"/>
      </g>
     </g>
     <g id="text_12">
      <!-- $\mathdefault{10^{2}}$ -->
      <g transform="translate(24.003438 64.069436)">
       <text>
        <tspan style="font-family:Arial;font-size:13px;font-style:regular;font-weight:regular;" x="0 7.22998" y="-0.39918750000000003">10</tspan>
        <tspan style="font-family:Arial;font-size:9.1px;font-style:regular;font-weight:regular;" x="14.686466" y="-9.459375">2</tspan>
       </text>
      </g>
     </g>
    </g>
    <g id="ytick_4">
     <g id="line2d_12">
      <defs>
       <path d="M 0 0 
L -4 0 
" id="ma1c13ea617" style="stroke:#000000;"/>
      </defs>
      <g>
       <use style="stroke:#000000;" x="53.913438" xlink:href="#ma1c13ea617" y="222.3827"/>
      </g>
     </g>
    </g>
    <g id="ytick_5">
     <g id="line2d_13">
      <g>
       <use style="stroke:#000000;" x="53.913438" xlink:href="#ma1c13ea617" y="218.357251"/>
      </g>
     </g>
    </g>
    <g id="ytick_6">
     <g id="line2d_14">
      <g>
       <use style="stroke:#000000;" x="53.913438" xlink:href="#ma1c13ea617" y="191.0668"/>
      </g>
     </g>
    </g>
    <g id="ytick_7">
     <g id="line2d_15">
      <g>
       <use style="stroke:#000000;" x="53.913438" xlink:href="#ma1c13ea617" y="177.209294"/>
      </g>
     </g>
    </g>
    <g id="ytick_8">
     <g id="line2d_16">
      <g>
       <use style="stroke:#000000;" x="53.913438" xlink:href="#ma1c13ea617" y="167.377237"/>
      </g>
     </g>
    </g>
    <g id="ytick_9">
     <g id="line2d_17">
      <g>
       <use style="stroke:#000000;" x="53.913438" xlink:href="#ma1c13ea617" y="159.750901"/>
      </g>
     </g>
    </g>
    <g id="ytick_10">
     <g id="line2d_18">
      <g>
       <use style="stroke:#000000;" x="53.913438" xlink:href="#ma1c13ea617" y="153.51973"/>
      </g>
     </g>
    </g>
    <g id="ytick_11">
     <g id="line2d_19">
      <g>
       <use style="stroke:#000000;" x="53.913438" xlink:href="#ma1c13ea617" y="148.251351"/>
      </g>
     </g>
    </g>
    <g id="ytick_12">
     <g id="line2d_20">
      <g>
       <use style="stroke:#000000;" x="53.913438" xlink:href="#ma1c13ea617" y="143.687673"/>
      </g>
     </g>
    </g>
    <g id="ytick_13">
     <g id="line2d_21">
      <g>
       <use style="stroke:#000000;" x="53.913438" xlink:href="#ma1c13ea617" y="139.662224"/>
      </g>
     </g>
    </g>
    <g id="ytick_14">
     <g id="line2d_22">
      <g>
       <use style="stroke:#000000;" x="53.913438" xlink:href="#ma1c13ea617" y="112.371774"/>
      </g>
     </g>
    </g>
    <g id="ytick_15">
     <g id="line2d_23">
      <g>
       <use style="stroke:#000000;" x="53.913438" xlink:href="#ma1c13ea617" y="98.514268"/>
      </g>
     </g>
    </g>
    <g id="ytick_16">
     <g id="line2d_24">
      <g>
       <use style="stroke:#000000;" x="53.913438" xlink:href="#ma1c13ea617" y="88.68221"/>
      </g>
     </g>
    </g>
    <g id="ytick_17">
     <g id="line2d_25">
      <g>
       <use style="stroke:#000000;" x="53.913438" xlink:href="#ma1c13ea617" y="81.055874"/>
      </g>
     </g>
    </g>
    <g id="ytick_18">
     <g id="line2d_26">
      <g>
       <use style="stroke:#000000;" x="53.913438" xlink:href="#ma1c13ea617" y="74.824704"/>
      </g>
     </g>
    </g>
    <g id="ytick_19">
     <g id="line2d_27">
      <g>
       <use style="stroke:#000000;" x="53.913438" xlink:href="#ma1c13ea617" y="69.556325"/>
      </g>
     </g>
    </g>
    <g id="ytick_20">
     <g id="line2d_28">
      <g>
       <use style="stroke:#000000;" x="53.913438" xlink:href="#ma1c13ea617" y="64.992647"/>
      </g>
     </g>
    </g>
    <g id="ytick_21">
     <g id="line2d_29">
      <g>
       <use style="stroke:#000000;" x="53.913438" xlink:href="#ma1c13ea617" y="60.967198"/>
      </g>
     </g>
    </g>
    <g id="ytick_22">
     <g id="line2d_30">
      <g>
       <use style="stroke:#000000;" x="53.913438" xlink:href="#ma1c13ea617" y="33.676748"/>
      </g>
     </g>
    </g>
    <g id="ytick_23">
     <g id="line2d_31">
      <g>
       <use style="stroke:#000000;" x="53.913438" xlink:href="#ma1c13ea617" y="19.819241"/>
      </g>
     </g>
    </g>
    <g id="ytick_24">
     <g id="line2d_32">
      <g>
       <use style="stroke:#000000;" x="53.913438" xlink:href="#ma1c13ea617" y="9.987184"/>
      </g>
     </g>
    </g>
    <g id="text_13">
     <text style="font-family:Arial;font-size:14px;font-style:normal;font-weight:normal;text-anchor:middle;" transform="rotate(-90, 17.220938, 115.92)" x="17.220938" y="115.92">Number of contributors</text>
    </g>
   </g>
   <g id="patch_103">
    <path d="M 53.913438 224.64 
L 53.913438 7.2 
" style="fill:none;stroke:#000000;stroke-linecap:square;stroke-linejoin:miter;stroke-width:1.25;"/>
   </g>
   <g id="patch_104">
    <path d="M 388.713437 224.64 
L 388.713437 7.2 
" style="fill:none;stroke:#000000;stroke-linecap:square;stroke-linejoin:miter;stroke-width:1.25;"/>
   </g>
   <g id="patch_105">
    <path d="M 53.913438 224.64 
L 388.713437 224.64 
" style="fill:none;stroke:#000000;stroke-linecap:square;stroke-linejoin:miter;stroke-width:1.25;"/>
   </g>
   <g id="patch_106">
    <path d="M 53.913438 7.2 
L 388.713437 7.2 
" style="fill:none;stroke:#000000;stroke-linecap:square;stroke-linejoin:miter;stroke-width:1.25;"/>
   </g>
  </g>
 </g>
 <defs>
  <clipPath id="p893be78008">
   <rect height="217.44" width="334.8" x="53.913438" y="7.2"/>
  </clipPath>
 </defs>
</svg>
