<?xml version="1.0" encoding="utf-8" standalone="no"?>
<!DOCTYPE svg PUBLIC "-//W3C//DTD SVG 1.1//EN"
  "http://www.w3.org/Graphics/SVG/1.1/DTD/svg11.dtd">
<!-- Created with matplotlib (https://matplotlib.org/) -->
<svg height="266.661094pt" version="1.1" viewBox="0 0 398.1425 266.661094" width="398.1425pt" xmlns="http://www.w3.org/2000/svg" xmlns:xlink="http://www.w3.org/1999/xlink">
 <defs>
  <style type="text/css">
*{stroke-linecap:butt;stroke-linejoin:round;}
  </style>
 </defs>
 <g id="figure_1">
  <g id="patch_1">
   <path d="M 0 266.661094 
L 398.1425 266.661094 
L 398.1425 0 
L 0 0 
z
" style="fill:none;"/>
  </g>
  <g id="axes_1">
   <g id="patch_2">
    <path d="M 56.1425 224.64 
L 390.9425 224.64 
L 390.9425 7.2 
L 56.1425 7.2 
z
" style="fill:none;"/>
   </g>
   <g id="patch_3">
    <path clip-path="url(#p2fbb68f20e)" d="M 71.360682 224.64 
L 74.404318 224.64 
L 74.404318 217.593045 
L 71.360682 217.593045 
z
" style="fill:#1f77b4;"/>
   </g>
   <g id="patch_4">
    <path clip-path="url(#p2fbb68f20e)" d="M 74.404318 224.64 
L 77.447955 224.64 
L 77.447955 224.64 
L 74.404318 224.64 
z
" style="fill:#1f77b4;"/>
   </g>
   <g id="patch_5">
    <path clip-path="url(#p2fbb68f20e)" d="M 77.447955 224.64 
L 80.491591 224.64 
L 80.491591 224.64 
L 77.447955 224.64 
z
" style="fill:#1f77b4;"/>
   </g>
   <g id="patch_6">
    <path clip-path="url(#p2fbb68f20e)" d="M 80.491591 224.64 
L 83.535227 224.64 
L 83.535227 224.64 
L 80.491591 224.64 
z
" style="fill:#1f77b4;"/>
   </g>
   <g id="patch_7">
    <path clip-path="url(#p2fbb68f20e)" d="M 83.535227 224.64 
L 86.578864 224.64 
L 86.578864 224.64 
L 83.535227 224.64 
z
" style="fill:#1f77b4;"/>
   </g>
   <g id="patch_8">
    <path clip-path="url(#p2fbb68f20e)" d="M 86.578864 224.64 
L 89.6225 224.64 
L 89.6225 224.64 
L 86.578864 224.64 
z
" style="fill:#1f77b4;"/>
   </g>
   <g id="patch_9">
    <path clip-path="url(#p2fbb68f20e)" d="M 89.6225 224.64 
L 92.666136 224.64 
L 92.666136 224.64 
L 89.6225 224.64 
z
" style="fill:#1f77b4;"/>
   </g>
   <g id="patch_10">
    <path clip-path="url(#p2fbb68f20e)" d="M 92.666136 224.64 
L 95.709773 224.64 
L 95.709773 224.64 
L 92.666136 224.64 
z
" style="fill:#1f77b4;"/>
   </g>
   <g id="patch_11">
    <path clip-path="url(#p2fbb68f20e)" d="M 95.709773 224.64 
L 98.753409 224.64 
L 98.753409 157.605105 
L 95.709773 157.605105 
z
" style="fill:#1f77b4;"/>
   </g>
   <g id="patch_12">
    <path clip-path="url(#p2fbb68f20e)" d="M 98.753409 224.64 
L 101.797045 224.64 
L 101.797045 224.64 
L 98.753409 224.64 
z
" style="fill:#1f77b4;"/>
   </g>
   <g id="patch_13">
    <path clip-path="url(#p2fbb68f20e)" d="M 101.797045 224.64 
L 104.840682 224.64 
L 104.840682 224.64 
L 101.797045 224.64 
z
" style="fill:#1f77b4;"/>
   </g>
   <g id="patch_14">
    <path clip-path="url(#p2fbb68f20e)" d="M 104.840682 224.64 
L 107.884318 224.64 
L 107.884318 224.64 
L 104.840682 224.64 
z
" style="fill:#1f77b4;"/>
   </g>
   <g id="patch_15">
    <path clip-path="url(#p2fbb68f20e)" d="M 107.884318 224.64 
L 110.927955 224.64 
L 110.927955 224.64 
L 107.884318 224.64 
z
" style="fill:#1f77b4;"/>
   </g>
   <g id="patch_16">
    <path clip-path="url(#p2fbb68f20e)" d="M 110.927955 224.64 
L 113.971591 224.64 
L 113.971591 224.64 
L 110.927955 224.64 
z
" style="fill:#1f77b4;"/>
   </g>
   <g id="patch_17">
    <path clip-path="url(#p2fbb68f20e)" d="M 113.971591 224.64 
L 117.015227 224.64 
L 117.015227 224.64 
L 113.971591 224.64 
z
" style="fill:#1f77b4;"/>
   </g>
   <g id="patch_18">
    <path clip-path="url(#p2fbb68f20e)" d="M 117.015227 224.64 
L 120.058864 224.64 
L 120.058864 224.64 
L 117.015227 224.64 
z
" style="fill:#1f77b4;"/>
   </g>
   <g id="patch_19">
    <path clip-path="url(#p2fbb68f20e)" d="M 120.058864 224.64 
L 123.1025 224.64 
L 123.1025 80.917658 
L 120.058864 80.917658 
z
" style="fill:#1f77b4;"/>
   </g>
   <g id="patch_20">
    <path clip-path="url(#p2fbb68f20e)" d="M 123.1025 224.64 
L 126.146136 224.64 
L 126.146136 224.64 
L 123.1025 224.64 
z
" style="fill:#1f77b4;"/>
   </g>
   <g id="patch_21">
    <path clip-path="url(#p2fbb68f20e)" d="M 126.146136 224.64 
L 129.189773 224.64 
L 129.189773 224.64 
L 126.146136 224.64 
z
" style="fill:#1f77b4;"/>
   </g>
   <g id="patch_22">
    <path clip-path="url(#p2fbb68f20e)" d="M 129.189773 224.64 
L 132.233409 224.64 
L 132.233409 224.64 
L 129.189773 224.64 
z
" style="fill:#1f77b4;"/>
   </g>
   <g id="patch_23">
    <path clip-path="url(#p2fbb68f20e)" d="M 132.233409 224.64 
L 135.277045 224.64 
L 135.277045 224.64 
L 132.233409 224.64 
z
" style="fill:#1f77b4;"/>
   </g>
   <g id="patch_24">
    <path clip-path="url(#p2fbb68f20e)" d="M 135.277045 224.64 
L 138.320682 224.64 
L 138.320682 224.64 
L 135.277045 224.64 
z
" style="fill:#1f77b4;"/>
   </g>
   <g id="patch_25">
    <path clip-path="url(#p2fbb68f20e)" d="M 138.320682 224.64 
L 141.364318 224.64 
L 141.364318 224.64 
L 138.320682 224.64 
z
" style="fill:#1f77b4;"/>
   </g>
   <g id="patch_26">
    <path clip-path="url(#p2fbb68f20e)" d="M 141.364318 224.64 
L 144.407955 224.64 
L 144.407955 224.64 
L 141.364318 224.64 
z
" style="fill:#1f77b4;"/>
   </g>
   <g id="patch_27">
    <path clip-path="url(#p2fbb68f20e)" d="M 144.407955 224.64 
L 147.451591 224.64 
L 147.451591 224.64 
L 144.407955 224.64 
z
" style="fill:#1f77b4;"/>
   </g>
   <g id="patch_28">
    <path clip-path="url(#p2fbb68f20e)" d="M 147.451591 224.64 
L 150.495227 224.64 
L 150.495227 17.554286 
L 147.451591 17.554286 
z
" style="fill:#1f77b4;"/>
   </g>
   <g id="patch_29">
    <path clip-path="url(#p2fbb68f20e)" d="M 150.495227 224.64 
L 153.538864 224.64 
L 153.538864 224.64 
L 150.495227 224.64 
z
" style="fill:#1f77b4;"/>
   </g>
   <g id="patch_30">
    <path clip-path="url(#p2fbb68f20e)" d="M 153.538864 224.64 
L 156.5825 224.64 
L 156.5825 224.64 
L 153.538864 224.64 
z
" style="fill:#1f77b4;"/>
   </g>
   <g id="patch_31">
    <path clip-path="url(#p2fbb68f20e)" d="M 156.5825 224.64 
L 159.626136 224.64 
L 159.626136 224.64 
L 156.5825 224.64 
z
" style="fill:#1f77b4;"/>
   </g>
   <g id="patch_32">
    <path clip-path="url(#p2fbb68f20e)" d="M 159.626136 224.64 
L 162.669773 224.64 
L 162.669773 224.64 
L 159.626136 224.64 
z
" style="fill:#1f77b4;"/>
   </g>
   <g id="patch_33">
    <path clip-path="url(#p2fbb68f20e)" d="M 162.669773 224.64 
L 165.713409 224.64 
L 165.713409 224.64 
L 162.669773 224.64 
z
" style="fill:#1f77b4;"/>
   </g>
   <g id="patch_34">
    <path clip-path="url(#p2fbb68f20e)" d="M 165.713409 224.64 
L 168.757045 224.64 
L 168.757045 224.64 
L 165.713409 224.64 
z
" style="fill:#1f77b4;"/>
   </g>
   <g id="patch_35">
    <path clip-path="url(#p2fbb68f20e)" d="M 168.757045 224.64 
L 171.800682 224.64 
L 171.800682 224.64 
L 168.757045 224.64 
z
" style="fill:#1f77b4;"/>
   </g>
   <g id="patch_36">
    <path clip-path="url(#p2fbb68f20e)" d="M 171.800682 224.64 
L 174.844318 224.64 
L 174.844318 131.726793 
L 171.800682 131.726793 
z
" style="fill:#1f77b4;"/>
   </g>
   <g id="patch_37">
    <path clip-path="url(#p2fbb68f20e)" d="M 174.844318 224.64 
L 177.887955 224.64 
L 177.887955 224.64 
L 174.844318 224.64 
z
" style="fill:#1f77b4;"/>
   </g>
   <g id="patch_38">
    <path clip-path="url(#p2fbb68f20e)" d="M 177.887955 224.64 
L 180.931591 224.64 
L 180.931591 224.64 
L 177.887955 224.64 
z
" style="fill:#1f77b4;"/>
   </g>
   <g id="patch_39">
    <path clip-path="url(#p2fbb68f20e)" d="M 180.931591 224.64 
L 183.975227 224.64 
L 183.975227 224.64 
L 180.931591 224.64 
z
" style="fill:#1f77b4;"/>
   </g>
   <g id="patch_40">
    <path clip-path="url(#p2fbb68f20e)" d="M 183.975227 224.64 
L 187.018864 224.64 
L 187.018864 224.64 
L 183.975227 224.64 
z
" style="fill:#1f77b4;"/>
   </g>
   <g id="patch_41">
    <path clip-path="url(#p2fbb68f20e)" d="M 187.018864 224.64 
L 190.0625 224.64 
L 190.0625 224.64 
L 187.018864 224.64 
z
" style="fill:#1f77b4;"/>
   </g>
   <g id="patch_42">
    <path clip-path="url(#p2fbb68f20e)" d="M 190.0625 224.64 
L 193.106136 224.64 
L 193.106136 224.64 
L 190.0625 224.64 
z
" style="fill:#1f77b4;"/>
   </g>
   <g id="patch_43">
    <path clip-path="url(#p2fbb68f20e)" d="M 193.106136 224.64 
L 196.149773 224.64 
L 196.149773 224.64 
L 193.106136 224.64 
z
" style="fill:#1f77b4;"/>
   </g>
   <g id="patch_44">
    <path clip-path="url(#p2fbb68f20e)" d="M 196.149773 224.64 
L 199.193409 224.64 
L 199.193409 209.657819 
L 196.149773 209.657819 
z
" style="fill:#1f77b4;"/>
   </g>
   <g id="patch_45">
    <path clip-path="url(#p2fbb68f20e)" d="M 199.193409 224.64 
L 202.237045 224.64 
L 202.237045 224.64 
L 199.193409 224.64 
z
" style="fill:#1f77b4;"/>
   </g>
   <g id="patch_46">
    <path clip-path="url(#p2fbb68f20e)" d="M 202.237045 224.64 
L 205.280682 224.64 
L 205.280682 224.64 
L 202.237045 224.64 
z
" style="fill:#1f77b4;"/>
   </g>
   <g id="patch_47">
    <path clip-path="url(#p2fbb68f20e)" d="M 205.280682 224.64 
L 208.324318 224.64 
L 208.324318 224.64 
L 205.280682 224.64 
z
" style="fill:#1f77b4;"/>
   </g>
   <g id="patch_48">
    <path clip-path="url(#p2fbb68f20e)" d="M 208.324318 224.64 
L 211.367955 224.64 
L 211.367955 224.64 
L 208.324318 224.64 
z
" style="fill:#1f77b4;"/>
   </g>
   <g id="patch_49">
    <path clip-path="url(#p2fbb68f20e)" d="M 211.367955 224.64 
L 214.411591 224.64 
L 214.411591 224.64 
L 211.367955 224.64 
z
" style="fill:#1f77b4;"/>
   </g>
   <g id="patch_50">
    <path clip-path="url(#p2fbb68f20e)" d="M 214.411591 224.64 
L 217.455227 224.64 
L 217.455227 224.64 
L 214.411591 224.64 
z
" style="fill:#1f77b4;"/>
   </g>
   <g id="patch_51">
    <path clip-path="url(#p2fbb68f20e)" d="M 217.455227 224.64 
L 220.498864 224.64 
L 220.498864 224.64 
L 217.455227 224.64 
z
" style="fill:#1f77b4;"/>
   </g>
   <g id="patch_52">
    <path clip-path="url(#p2fbb68f20e)" d="M 220.498864 224.64 
L 223.5425 224.64 
L 223.5425 224.64 
L 220.498864 224.64 
z
" style="fill:#1f77b4;"/>
   </g>
   <g id="patch_53">
    <path clip-path="url(#p2fbb68f20e)" d="M 223.5425 224.64 
L 226.586136 224.64 
L 226.586136 220.317078 
L 223.5425 220.317078 
z
" style="fill:#1f77b4;"/>
   </g>
   <g id="patch_54">
    <path clip-path="url(#p2fbb68f20e)" d="M 226.586136 224.64 
L 229.629773 224.64 
L 229.629773 224.64 
L 226.586136 224.64 
z
" style="fill:#1f77b4;"/>
   </g>
   <g id="patch_55">
    <path clip-path="url(#p2fbb68f20e)" d="M 229.629773 224.64 
L 232.673409 224.64 
L 232.673409 224.64 
L 229.629773 224.64 
z
" style="fill:#1f77b4;"/>
   </g>
   <g id="patch_56">
    <path clip-path="url(#p2fbb68f20e)" d="M 232.673409 224.64 
L 235.717045 224.64 
L 235.717045 224.64 
L 232.673409 224.64 
z
" style="fill:#1f77b4;"/>
   </g>
   <g id="patch_57">
    <path clip-path="url(#p2fbb68f20e)" d="M 235.717045 224.64 
L 238.760682 224.64 
L 238.760682 224.64 
L 235.717045 224.64 
z
" style="fill:#1f77b4;"/>
   </g>
   <g id="patch_58">
    <path clip-path="url(#p2fbb68f20e)" d="M 238.760682 224.64 
L 241.804318 224.64 
L 241.804318 224.64 
L 238.760682 224.64 
z
" style="fill:#1f77b4;"/>
   </g>
   <g id="patch_59">
    <path clip-path="url(#p2fbb68f20e)" d="M 241.804318 224.64 
L 244.847955 224.64 
L 244.847955 224.64 
L 241.804318 224.64 
z
" style="fill:#1f77b4;"/>
   </g>
   <g id="patch_60">
    <path clip-path="url(#p2fbb68f20e)" d="M 244.847955 224.64 
L 247.891591 224.64 
L 247.891591 224.64 
L 244.847955 224.64 
z
" style="fill:#1f77b4;"/>
   </g>
   <g id="patch_61">
    <path clip-path="url(#p2fbb68f20e)" d="M 247.891591 224.64 
L 250.935227 224.64 
L 250.935227 223.277984 
L 247.891591 223.277984 
z
" style="fill:#1f77b4;"/>
   </g>
   <g id="patch_62">
    <path clip-path="url(#p2fbb68f20e)" d="M 250.935227 224.64 
L 253.978864 224.64 
L 253.978864 224.64 
L 250.935227 224.64 
z
" style="fill:#1f77b4;"/>
   </g>
   <g id="patch_63">
    <path clip-path="url(#p2fbb68f20e)" d="M 253.978864 224.64 
L 257.0225 224.64 
L 257.0225 224.64 
L 253.978864 224.64 
z
" style="fill:#1f77b4;"/>
   </g>
   <g id="patch_64">
    <path clip-path="url(#p2fbb68f20e)" d="M 257.0225 224.64 
L 260.066136 224.64 
L 260.066136 224.64 
L 257.0225 224.64 
z
" style="fill:#1f77b4;"/>
   </g>
   <g id="patch_65">
    <path clip-path="url(#p2fbb68f20e)" d="M 260.066136 224.64 
L 263.109773 224.64 
L 263.109773 224.64 
L 260.066136 224.64 
z
" style="fill:#1f77b4;"/>
   </g>
   <g id="patch_66">
    <path clip-path="url(#p2fbb68f20e)" d="M 263.109773 224.64 
L 266.153409 224.64 
L 266.153409 224.64 
L 263.109773 224.64 
z
" style="fill:#1f77b4;"/>
   </g>
   <g id="patch_67">
    <path clip-path="url(#p2fbb68f20e)" d="M 266.153409 224.64 
L 269.197045 224.64 
L 269.197045 224.64 
L 266.153409 224.64 
z
" style="fill:#1f77b4;"/>
   </g>
   <g id="patch_68">
    <path clip-path="url(#p2fbb68f20e)" d="M 269.197045 224.64 
L 272.240682 224.64 
L 272.240682 224.64 
L 269.197045 224.64 
z
" style="fill:#1f77b4;"/>
   </g>
   <g id="patch_69">
    <path clip-path="url(#p2fbb68f20e)" d="M 272.240682 224.64 
L 275.284318 224.64 
L 275.284318 223.870165 
L 272.240682 223.870165 
z
" style="fill:#1f77b4;"/>
   </g>
   <g id="patch_70">
    <path clip-path="url(#p2fbb68f20e)" d="M 275.284318 224.64 
L 278.327955 224.64 
L 278.327955 224.64 
L 275.284318 224.64 
z
" style="fill:#1f77b4;"/>
   </g>
   <g id="patch_71">
    <path clip-path="url(#p2fbb68f20e)" d="M 278.327955 224.64 
L 281.371591 224.64 
L 281.371591 224.64 
L 278.327955 224.64 
z
" style="fill:#1f77b4;"/>
   </g>
   <g id="patch_72">
    <path clip-path="url(#p2fbb68f20e)" d="M 281.371591 224.64 
L 284.415227 224.64 
L 284.415227 224.64 
L 281.371591 224.64 
z
" style="fill:#1f77b4;"/>
   </g>
   <g id="patch_73">
    <path clip-path="url(#p2fbb68f20e)" d="M 284.415227 224.64 
L 287.458864 224.64 
L 287.458864 224.64 
L 284.415227 224.64 
z
" style="fill:#1f77b4;"/>
   </g>
   <g id="patch_74">
    <path clip-path="url(#p2fbb68f20e)" d="M 287.458864 224.64 
L 290.5025 224.64 
L 290.5025 224.64 
L 287.458864 224.64 
z
" style="fill:#1f77b4;"/>
   </g>
   <g id="patch_75">
    <path clip-path="url(#p2fbb68f20e)" d="M 290.5025 224.64 
L 293.546136 224.64 
L 293.546136 224.64 
L 290.5025 224.64 
z
" style="fill:#1f77b4;"/>
   </g>
   <g id="patch_76">
    <path clip-path="url(#p2fbb68f20e)" d="M 293.546136 224.64 
L 296.589773 224.64 
L 296.589773 224.64 
L 293.546136 224.64 
z
" style="fill:#1f77b4;"/>
   </g>
   <g id="patch_77">
    <path clip-path="url(#p2fbb68f20e)" d="M 296.589773 224.64 
L 299.633409 224.64 
L 299.633409 224.64 
L 296.589773 224.64 
z
" style="fill:#1f77b4;"/>
   </g>
   <g id="patch_78">
    <path clip-path="url(#p2fbb68f20e)" d="M 299.633409 224.64 
L 302.677045 224.64 
L 302.677045 224.521564 
L 299.633409 224.521564 
z
" style="fill:#1f77b4;"/>
   </g>
   <g id="patch_79">
    <path clip-path="url(#p2fbb68f20e)" d="M 302.677045 224.64 
L 305.720682 224.64 
L 305.720682 224.64 
L 302.677045 224.64 
z
" style="fill:#1f77b4;"/>
   </g>
   <g id="patch_80">
    <path clip-path="url(#p2fbb68f20e)" d="M 305.720682 224.64 
L 308.764318 224.64 
L 308.764318 224.64 
L 305.720682 224.64 
z
" style="fill:#1f77b4;"/>
   </g>
   <g id="patch_81">
    <path clip-path="url(#p2fbb68f20e)" d="M 308.764318 224.64 
L 311.807955 224.64 
L 311.807955 224.64 
L 308.764318 224.64 
z
" style="fill:#1f77b4;"/>
   </g>
   <g id="patch_82">
    <path clip-path="url(#p2fbb68f20e)" d="M 311.807955 224.64 
L 314.851591 224.64 
L 314.851591 224.64 
L 311.807955 224.64 
z
" style="fill:#1f77b4;"/>
   </g>
   <g id="patch_83">
    <path clip-path="url(#p2fbb68f20e)" d="M 314.851591 224.64 
L 317.895227 224.64 
L 317.895227 224.64 
L 314.851591 224.64 
z
" style="fill:#1f77b4;"/>
   </g>
   <g id="patch_84">
    <path clip-path="url(#p2fbb68f20e)" d="M 317.895227 224.64 
L 320.938864 224.64 
L 320.938864 224.64 
L 317.895227 224.64 
z
" style="fill:#1f77b4;"/>
   </g>
   <g id="patch_85">
    <path clip-path="url(#p2fbb68f20e)" d="M 320.938864 224.64 
L 323.9825 224.64 
L 323.9825 224.64 
L 320.938864 224.64 
z
" style="fill:#1f77b4;"/>
   </g>
   <g id="patch_86">
    <path clip-path="url(#p2fbb68f20e)" d="M 323.9825 224.64 
L 327.026136 224.64 
L 327.026136 224.580782 
L 323.9825 224.580782 
z
" style="fill:#1f77b4;"/>
   </g>
   <g id="patch_87">
    <path clip-path="url(#p2fbb68f20e)" d="M 327.026136 224.64 
L 330.069773 224.64 
L 330.069773 224.64 
L 327.026136 224.64 
z
" style="fill:#1f77b4;"/>
   </g>
   <g id="patch_88">
    <path clip-path="url(#p2fbb68f20e)" d="M 330.069773 224.64 
L 333.113409 224.64 
L 333.113409 224.64 
L 330.069773 224.64 
z
" style="fill:#1f77b4;"/>
   </g>
   <g id="patch_89">
    <path clip-path="url(#p2fbb68f20e)" d="M 333.113409 224.64 
L 336.157045 224.64 
L 336.157045 224.64 
L 333.113409 224.64 
z
" style="fill:#1f77b4;"/>
   </g>
   <g id="patch_90">
    <path clip-path="url(#p2fbb68f20e)" d="M 336.157045 224.64 
L 339.200682 224.64 
L 339.200682 224.64 
L 336.157045 224.64 
z
" style="fill:#1f77b4;"/>
   </g>
   <g id="patch_91">
    <path clip-path="url(#p2fbb68f20e)" d="M 339.200682 224.64 
L 342.244318 224.64 
L 342.244318 224.64 
L 339.200682 224.64 
z
" style="fill:#1f77b4;"/>
   </g>
   <g id="patch_92">
    <path clip-path="url(#p2fbb68f20e)" d="M 342.244318 224.64 
L 345.287955 224.64 
L 345.287955 224.64 
L 342.244318 224.64 
z
" style="fill:#1f77b4;"/>
   </g>
   <g id="patch_93">
    <path clip-path="url(#p2fbb68f20e)" d="M 345.287955 224.64 
L 348.331591 224.64 
L 348.331591 224.64 
L 345.287955 224.64 
z
" style="fill:#1f77b4;"/>
   </g>
   <g id="patch_94">
    <path clip-path="url(#p2fbb68f20e)" d="M 348.331591 224.64 
L 351.375227 224.64 
L 351.375227 224.462346 
L 348.331591 224.462346 
z
" style="fill:#1f77b4;"/>
   </g>
   <g id="patch_95">
    <path clip-path="url(#p2fbb68f20e)" d="M 351.375227 224.64 
L 354.418864 224.64 
L 354.418864 224.64 
L 351.375227 224.64 
z
" style="fill:#1f77b4;"/>
   </g>
   <g id="patch_96">
    <path clip-path="url(#p2fbb68f20e)" d="M 354.418864 224.64 
L 357.4625 224.64 
L 357.4625 224.64 
L 354.418864 224.64 
z
" style="fill:#1f77b4;"/>
   </g>
   <g id="patch_97">
    <path clip-path="url(#p2fbb68f20e)" d="M 357.4625 224.64 
L 360.506136 224.64 
L 360.506136 224.64 
L 357.4625 224.64 
z
" style="fill:#1f77b4;"/>
   </g>
   <g id="patch_98">
    <path clip-path="url(#p2fbb68f20e)" d="M 360.506136 224.64 
L 363.549773 224.64 
L 363.549773 224.64 
L 360.506136 224.64 
z
" style="fill:#1f77b4;"/>
   </g>
   <g id="patch_99">
    <path clip-path="url(#p2fbb68f20e)" d="M 363.549773 224.64 
L 366.593409 224.64 
L 366.593409 224.64 
L 363.549773 224.64 
z
" style="fill:#1f77b4;"/>
   </g>
   <g id="patch_100">
    <path clip-path="url(#p2fbb68f20e)" d="M 366.593409 224.64 
L 369.637045 224.64 
L 369.637045 224.64 
L 366.593409 224.64 
z
" style="fill:#1f77b4;"/>
   </g>
   <g id="patch_101">
    <path clip-path="url(#p2fbb68f20e)" d="M 369.637045 224.64 
L 372.680682 224.64 
L 372.680682 224.64 
L 369.637045 224.64 
z
" style="fill:#1f77b4;"/>
   </g>
   <g id="patch_102">
    <path clip-path="url(#p2fbb68f20e)" d="M 372.680682 224.64 
L 375.724318 224.64 
L 375.724318 224.580782 
L 372.680682 224.580782 
z
" style="fill:#1f77b4;"/>
   </g>
   <g id="matplotlib.axis_1">
    <g id="xtick_1">
     <g id="line2d_1">
      <defs>
       <path d="M 0 0 
L 0 6 
" id="m5353cf1c2d" style="stroke:#000000;stroke-width:1.25;"/>
      </defs>
      <g>
       <use style="stroke:#000000;stroke-width:1.25;" x="96.724318" xlink:href="#m5353cf1c2d" y="224.64"/>
      </g>
     </g>
     <g id="text_1">
      <text style="font-family:Arial;font-size:11px;font-style:normal;font-weight:normal;text-anchor:middle;" transform="rotate(-0, 96.724318, 242.013594)" x="96.724318" y="242.013594">6</text>
     </g>
    </g>
    <g id="xtick_2">
     <g id="line2d_2">
      <g>
       <use style="stroke:#000000;stroke-width:1.25;" x="147.451591" xlink:href="#m5353cf1c2d" y="224.64"/>
      </g>
     </g>
     <g id="text_2">
      <text style="font-family:Arial;font-size:11px;font-style:normal;font-weight:normal;text-anchor:middle;" transform="rotate(-0, 147.451591, 242.013594)" x="147.451591" y="242.013594">8</text>
     </g>
    </g>
    <g id="xtick_3">
     <g id="line2d_3">
      <g>
       <use style="stroke:#000000;stroke-width:1.25;" x="198.178864" xlink:href="#m5353cf1c2d" y="224.64"/>
      </g>
     </g>
     <g id="text_3">
      <text style="font-family:Arial;font-size:11px;font-style:normal;font-weight:normal;text-anchor:middle;" transform="rotate(-0, 198.178864, 242.013594)" x="198.178864" y="242.013594">10</text>
     </g>
    </g>
    <g id="xtick_4">
     <g id="line2d_4">
      <g>
       <use style="stroke:#000000;stroke-width:1.25;" x="248.906136" xlink:href="#m5353cf1c2d" y="224.64"/>
      </g>
     </g>
     <g id="text_4">
      <text style="font-family:Arial;font-size:11px;font-style:normal;font-weight:normal;text-anchor:middle;" transform="rotate(-0, 248.906136, 242.013594)" x="248.906136" y="242.013594">12</text>
     </g>
    </g>
    <g id="xtick_5">
     <g id="line2d_5">
      <g>
       <use style="stroke:#000000;stroke-width:1.25;" x="299.633409" xlink:href="#m5353cf1c2d" y="224.64"/>
      </g>
     </g>
     <g id="text_5">
      <text style="font-family:Arial;font-size:11px;font-style:normal;font-weight:normal;text-anchor:middle;" transform="rotate(-0, 299.633409, 242.013594)" x="299.633409" y="242.013594">14</text>
     </g>
    </g>
    <g id="xtick_6">
     <g id="line2d_6">
      <g>
       <use style="stroke:#000000;stroke-width:1.25;" x="350.360682" xlink:href="#m5353cf1c2d" y="224.64"/>
      </g>
     </g>
     <g id="text_6">
      <text style="font-family:Arial;font-size:11px;font-style:normal;font-weight:normal;text-anchor:middle;" transform="rotate(-0, 350.360682, 242.013594)" x="350.360682" y="242.013594">16</text>
     </g>
    </g>
    <g id="text_7">
     <text style="font-family:Arial;font-size:12px;font-style:normal;font-weight:normal;text-anchor:middle;" transform="rotate(-0, 223.5425, 256.935469)" x="223.5425" y="256.935469">Number of ratings per transition</text>
    </g>
   </g>
   <g id="matplotlib.axis_2">
    <g id="ytick_1">
     <g id="line2d_7">
      <defs>
       <path d="M 0 0 
L -6 0 
" id="m8718cc2212" style="stroke:#000000;stroke-width:1.25;"/>
      </defs>
      <g>
       <use style="stroke:#000000;stroke-width:1.25;" x="56.1425" xlink:href="#m8718cc2212" y="224.64"/>
      </g>
     </g>
     <g id="text_8">
      <text style="font-family:Arial;font-size:11px;font-style:normal;font-weight:normal;text-anchor:end;" transform="rotate(-0, 46.6425, 228.576797)" x="46.6425" y="228.576797">0</text>
     </g>
    </g>
    <g id="ytick_2">
     <g id="line2d_8">
      <g>
       <use style="stroke:#000000;stroke-width:1.25;" x="56.1425" xlink:href="#m8718cc2212" y="195.030947"/>
      </g>
     </g>
     <g id="text_9">
      <text style="font-family:Arial;font-size:11px;font-style:normal;font-weight:normal;text-anchor:end;" transform="rotate(-0, 46.6425, 198.967744)" x="46.6425" y="198.967744">500</text>
     </g>
    </g>
    <g id="ytick_3">
     <g id="line2d_9">
      <g>
       <use style="stroke:#000000;stroke-width:1.25;" x="56.1425" xlink:href="#m8718cc2212" y="165.421895"/>
      </g>
     </g>
     <g id="text_10">
      <text style="font-family:Arial;font-size:11px;font-style:normal;font-weight:normal;text-anchor:end;" transform="rotate(-0, 46.6425, 169.358692)" x="46.6425" y="169.358692">1000</text>
     </g>
    </g>
    <g id="ytick_4">
     <g id="line2d_10">
      <g>
       <use style="stroke:#000000;stroke-width:1.25;" x="56.1425" xlink:href="#m8718cc2212" y="135.812842"/>
      </g>
     </g>
     <g id="text_11">
      <text style="font-family:Arial;font-size:11px;font-style:normal;font-weight:normal;text-anchor:end;" transform="rotate(-0, 46.6425, 139.749639)" x="46.6425" y="139.749639">1500</text>
     </g>
    </g>
    <g id="ytick_5">
     <g id="line2d_11">
      <g>
       <use style="stroke:#000000;stroke-width:1.25;" x="56.1425" xlink:href="#m8718cc2212" y="106.203789"/>
      </g>
     </g>
     <g id="text_12">
      <text style="font-family:Arial;font-size:11px;font-style:normal;font-weight:normal;text-anchor:end;" transform="rotate(-0, 46.6425, 110.140586)" x="46.6425" y="110.140586">2000</text>
     </g>
    </g>
    <g id="ytick_6">
     <g id="line2d_12">
      <g>
       <use style="stroke:#000000;stroke-width:1.25;" x="56.1425" xlink:href="#m8718cc2212" y="76.594737"/>
      </g>
     </g>
     <g id="text_13">
      <text style="font-family:Arial;font-size:11px;font-style:normal;font-weight:normal;text-anchor:end;" transform="rotate(-0, 46.6425, 80.531534)" x="46.6425" y="80.531534">2500</text>
     </g>
    </g>
    <g id="ytick_7">
     <g id="line2d_13">
      <g>
       <use style="stroke:#000000;stroke-width:1.25;" x="56.1425" xlink:href="#m8718cc2212" y="46.985684"/>
      </g>
     </g>
     <g id="text_14">
      <text style="font-family:Arial;font-size:11px;font-style:normal;font-weight:normal;text-anchor:end;" transform="rotate(-0, 46.6425, 50.922481)" x="46.6425" y="50.922481">3000</text>
     </g>
    </g>
    <g id="ytick_8">
     <g id="line2d_14">
      <g>
       <use style="stroke:#000000;stroke-width:1.25;" x="56.1425" xlink:href="#m8718cc2212" y="17.376631"/>
      </g>
     </g>
     <g id="text_15">
      <text style="font-family:Arial;font-size:11px;font-style:normal;font-weight:normal;text-anchor:end;" transform="rotate(-0, 46.6425, 21.313428)" x="46.6425" y="21.313428">3500</text>
     </g>
    </g>
    <g id="text_16">
     <text style="font-family:Arial;font-size:12px;font-style:normal;font-weight:normal;text-anchor:middle;" transform="rotate(-90, 15.789375, 115.92)" x="15.789375" y="115.92">Number of transitions</text>
    </g>
   </g>
   <g id="patch_103">
    <path d="M 56.1425 224.64 
L 56.1425 7.2 
" style="fill:none;stroke:#000000;stroke-linecap:square;stroke-linejoin:miter;stroke-width:1.25;"/>
   </g>
   <g id="patch_104">
    <path d="M 390.9425 224.64 
L 390.9425 7.2 
" style="fill:none;stroke:#000000;stroke-linecap:square;stroke-linejoin:miter;stroke-width:1.25;"/>
   </g>
   <g id="patch_105">
    <path d="M 56.1425 224.64 
L 390.9425 224.64 
" style="fill:none;stroke:#000000;stroke-linecap:square;stroke-linejoin:miter;stroke-width:1.25;"/>
   </g>
   <g id="patch_106">
    <path d="M 56.1425 7.2 
L 390.9425 7.2 
" style="fill:none;stroke:#000000;stroke-linecap:square;stroke-linejoin:miter;stroke-width:1.25;"/>
   </g>
  </g>
 </g>
 <defs>
  <clipPath id="p2fbb68f20e">
   <rect height="217.44" width="334.8" x="56.1425" y="7.2"/>
  </clipPath>
 </defs>
</svg>
